%FSLAX25Y25*%
%MOIN*%
G70*
G01*
G75*
G04 Layer_Color=32896*
%ADD10R,0.03150X0.06299*%
%ADD11O,0.12598X0.02362*%
%ADD12R,0.00945X0.11811*%
%ADD13R,0.11811X0.00945*%
%ADD14O,0.11811X0.00945*%
%ADD15R,0.03937X0.04331*%
%ADD16R,0.05906X0.05118*%
%ADD17R,0.05118X0.05906*%
%ADD18R,0.09449X0.07087*%
%ADD19R,0.07874X0.04724*%
%ADD20R,0.08268X0.02362*%
%ADD21R,0.17716X0.19685*%
%ADD22R,0.08661X0.11811*%
%ADD23R,0.11024X0.07874*%
%ADD24R,0.06299X0.03150*%
%ADD25R,0.11000X0.15000*%
%ADD26R,0.10984X0.11811*%
%ADD27R,0.06496X0.04724*%
%ADD28R,0.06496X0.04528*%
%ADD29R,0.06299X0.10630*%
%ADD30R,0.10236X0.09449*%
%ADD31R,0.06299X0.07087*%
%ADD32R,0.07087X0.06299*%
%ADD33R,0.08661X0.13386*%
%ADD34R,0.04528X0.06496*%
%ADD35R,0.04724X0.06496*%
%ADD36R,0.07874X0.01378*%
%ADD37O,0.07874X0.01378*%
%ADD38R,0.06500X0.11201*%
%ADD39R,0.09055X0.05906*%
%ADD40R,0.09055X0.05906*%
%ADD41R,0.09055X0.09055*%
%ADD42R,0.05512X0.14961*%
%ADD43R,0.07284X0.01575*%
%ADD44R,0.23622X0.23622*%
%ADD45O,0.00669X0.05709*%
%ADD46R,0.00669X0.05709*%
%ADD47C,0.02500*%
%ADD48C,0.01000*%
%ADD49C,0.00800*%
%ADD50C,0.00600*%
%ADD51C,0.00661*%
%ADD52C,0.00700*%
%ADD53C,0.02205*%
%ADD54C,0.01654*%
%ADD55C,0.00965*%
%ADD56C,0.01102*%
%ADD57C,0.00900*%
%ADD58C,0.05906*%
%ADD59R,0.05906X0.05906*%
%ADD60C,0.06000*%
%ADD61R,0.05906X0.05906*%
%ADD62C,0.15748*%
%ADD63C,0.05000*%
%ADD64R,0.08661X0.07874*%
%ADD65C,0.00984*%
%ADD66C,0.01200*%
%ADD67C,0.00787*%
%ADD68C,0.01575*%
%ADD69C,0.00591*%
D48*
X423000Y827498D02*
Y821500D01*
X420001D01*
X419001Y822500D01*
Y823499D01*
X420001Y824499D01*
X423000D01*
X420001D01*
X419001Y825499D01*
Y826498D01*
X420001Y827498D01*
X423000D01*
X417002D02*
X413003D01*
X415003D01*
Y821500D01*
X411004D02*
X409004D01*
X410004D01*
Y827498D01*
X411004Y826498D01*
X462500Y485998D02*
Y481000D01*
X461500Y480000D01*
X459501D01*
X458501Y481000D01*
Y485998D01*
X453503Y480000D02*
Y485998D01*
X456502Y482999D01*
X452503D01*
X414000Y692000D02*
Y697998D01*
X411001D01*
X410001Y696998D01*
Y694999D01*
X411001Y693999D01*
X414000D01*
X412001D02*
X410001Y692000D01*
X404003D02*
X408002D01*
X404003Y695999D01*
Y696998D01*
X405003Y697998D01*
X407002D01*
X408002Y696998D01*
X398005Y697998D02*
X402004D01*
Y694999D01*
X400004Y695999D01*
X399005D01*
X398005Y694999D01*
Y693000D01*
X399005Y692000D01*
X401004D01*
X402004Y693000D01*
X380000Y621000D02*
Y615002D01*
X382999D01*
X383999Y616002D01*
Y618001D01*
X382999Y619001D01*
X380000D01*
X381999D02*
X383999Y621000D01*
X385998D02*
X387997D01*
X386998D01*
Y615002D01*
X385998Y616002D01*
X390996Y620000D02*
X391996Y621000D01*
X393995D01*
X394995Y620000D01*
Y616002D01*
X393995Y615002D01*
X391996D01*
X390996Y616002D01*
Y617001D01*
X391996Y618001D01*
X394995D01*
X304453Y547047D02*
Y553045D01*
X301454D01*
X300454Y552046D01*
Y550046D01*
X301454Y549047D01*
X304453D01*
X302453D02*
X300454Y547047D01*
X298455Y552046D02*
X297455Y553045D01*
X295456D01*
X294456Y552046D01*
Y551046D01*
X295456Y550046D01*
X294456Y549047D01*
Y548047D01*
X295456Y547047D01*
X297455D01*
X298455Y548047D01*
Y549047D01*
X297455Y550046D01*
X298455Y551046D01*
Y552046D01*
X297455Y550046D02*
X295456D01*
X309453Y535047D02*
Y529049D01*
X312452D01*
X313452Y530049D01*
Y532048D01*
X312452Y533048D01*
X309453D01*
X311452D02*
X313452Y535047D01*
X319449Y529049D02*
X317450Y530049D01*
X315451Y532048D01*
Y534048D01*
X316451Y535047D01*
X318450D01*
X319449Y534048D01*
Y533048D01*
X318450Y532048D01*
X315451D01*
X313454Y476046D02*
X314454Y477045D01*
X316453D01*
X317453Y476046D01*
Y472047D01*
X316453Y471047D01*
X314454D01*
X313454Y472047D01*
X308456Y471047D02*
Y477045D01*
X311455Y474046D01*
X307456D01*
X300454Y484546D02*
X301454Y485545D01*
X303453D01*
X304453Y484546D01*
Y480547D01*
X303453Y479547D01*
X301454D01*
X300454Y480547D01*
X298455Y484546D02*
X297455Y485545D01*
X295456D01*
X294456Y484546D01*
Y483546D01*
X295456Y482546D01*
X296455D01*
X295456D01*
X294456Y481547D01*
Y480547D01*
X295456Y479547D01*
X297455D01*
X298455Y480547D01*
X293501Y494498D02*
X294501Y495498D01*
X296500D01*
X297500Y494498D01*
Y490500D01*
X296500Y489500D01*
X294501D01*
X293501Y490500D01*
X287503Y489500D02*
X291502D01*
X287503Y493499D01*
Y494498D01*
X288503Y495498D01*
X290502D01*
X291502Y494498D01*
X474954Y483048D02*
X473955Y484048D01*
Y486048D01*
X474954Y487047D01*
X478953D01*
X479953Y486048D01*
Y484048D01*
X478953Y483048D01*
X479953Y481049D02*
Y479050D01*
Y480050D01*
X473955D01*
X474954Y481049D01*
X493000Y334000D02*
X487002D01*
Y331001D01*
X488002Y330001D01*
X490001D01*
X491001Y331001D01*
Y334000D01*
Y332001D02*
X493000Y330001D01*
Y324003D02*
Y328002D01*
X489001Y324003D01*
X488002D01*
X487002Y325003D01*
Y327002D01*
X488002Y328002D01*
Y322004D02*
X487002Y321004D01*
Y319005D01*
X488002Y318005D01*
X489001D01*
X490001Y319005D01*
Y320005D01*
Y319005D01*
X491001Y318005D01*
X492000D01*
X493000Y319005D01*
Y321004D01*
X492000Y322004D01*
X483000Y333500D02*
X477002D01*
Y330501D01*
X478002Y329501D01*
X480001D01*
X481001Y330501D01*
Y333500D01*
Y331501D02*
X483000Y329501D01*
Y323503D02*
Y327502D01*
X479001Y323503D01*
X478002D01*
X477002Y324503D01*
Y326502D01*
X478002Y327502D01*
X483000Y317505D02*
Y321504D01*
X479001Y317505D01*
X478002D01*
X477002Y318505D01*
Y320504D01*
X478002Y321504D01*
X473500Y333500D02*
X467502D01*
Y330501D01*
X468502Y329501D01*
X470501D01*
X471501Y330501D01*
Y333500D01*
Y331501D02*
X473500Y329501D01*
Y323503D02*
Y327502D01*
X469501Y323503D01*
X468502D01*
X467502Y324503D01*
Y326502D01*
X468502Y327502D01*
X473500Y321504D02*
Y319504D01*
Y320504D01*
X467502D01*
X468502Y321504D01*
X463000Y333500D02*
X457002D01*
Y330501D01*
X458002Y329501D01*
X460001D01*
X461001Y330501D01*
Y333500D01*
Y331501D02*
X463000Y329501D01*
Y323503D02*
Y327502D01*
X459001Y323503D01*
X458002D01*
X457002Y324503D01*
Y326502D01*
X458002Y327502D01*
Y321504D02*
X457002Y320504D01*
Y318505D01*
X458002Y317505D01*
X462000D01*
X463000Y318505D01*
Y320504D01*
X462000Y321504D01*
X458002D01*
X262895Y691202D02*
X261896Y692202D01*
Y694201D01*
X262895Y695201D01*
X266894D01*
X267894Y694201D01*
Y692202D01*
X266894Y691202D01*
X262895Y689203D02*
X261896Y688203D01*
Y686204D01*
X262895Y685204D01*
X263895D01*
X264895Y686204D01*
Y687203D01*
Y686204D01*
X265894Y685204D01*
X266894D01*
X267894Y686204D01*
Y688203D01*
X266894Y689203D01*
X262895Y683205D02*
X261896Y682205D01*
Y680206D01*
X262895Y679206D01*
X263895D01*
X264895Y680206D01*
Y681205D01*
Y680206D01*
X265894Y679206D01*
X266894D01*
X267894Y680206D01*
Y682205D01*
X266894Y683205D01*
X450108Y602798D02*
X451107Y603797D01*
X453107D01*
X454106Y602798D01*
Y598799D01*
X453107Y597799D01*
X451107D01*
X450108Y598799D01*
X448108Y602798D02*
X447109Y603797D01*
X445109D01*
X444109Y602798D01*
Y601798D01*
X445109Y600798D01*
X446109D01*
X445109D01*
X444109Y599798D01*
Y598799D01*
X445109Y597799D01*
X447109D01*
X448108Y598799D01*
X438111Y597799D02*
X442110D01*
X438111Y601798D01*
Y602798D01*
X439111Y603797D01*
X441111D01*
X442110Y602798D01*
X243495Y693799D02*
X244495Y694799D01*
X246494D01*
X247494Y693799D01*
Y689801D01*
X246494Y688801D01*
X244495D01*
X243495Y689801D01*
X241496Y693799D02*
X240496Y694799D01*
X238497D01*
X237497Y693799D01*
Y692800D01*
X238497Y691800D01*
X239496D01*
X238497D01*
X237497Y690800D01*
Y689801D01*
X238497Y688801D01*
X240496D01*
X241496Y689801D01*
X235498Y693799D02*
X234498Y694799D01*
X232499D01*
X231499Y693799D01*
Y689801D01*
X232499Y688801D01*
X234498D01*
X235498Y689801D01*
Y693799D01*
X490002Y584501D02*
X489002Y585501D01*
Y587500D01*
X490002Y588500D01*
X494000D01*
X495000Y587500D01*
Y585501D01*
X494000Y584501D01*
X495000Y578503D02*
Y582502D01*
X491001Y578503D01*
X490002D01*
X489002Y579503D01*
Y581502D01*
X490002Y582502D01*
X494000Y576504D02*
X495000Y575504D01*
Y573505D01*
X494000Y572505D01*
X490002D01*
X489002Y573505D01*
Y575504D01*
X490002Y576504D01*
X491001D01*
X492001Y575504D01*
Y572505D01*
X319999Y623735D02*
X318999Y622736D01*
X317000D01*
X316000Y623735D01*
Y627734D01*
X317000Y628734D01*
X318999D01*
X319999Y627734D01*
X325997Y628734D02*
X321998D01*
X325997Y624735D01*
Y623735D01*
X324997Y622736D01*
X322998D01*
X321998Y623735D01*
X327996Y622736D02*
X331995D01*
Y623735D01*
X327996Y627734D01*
Y628734D01*
X355499Y656502D02*
X354499Y655502D01*
X352500D01*
X351500Y656502D01*
Y660500D01*
X352500Y661500D01*
X354499D01*
X355499Y660500D01*
X361497Y661500D02*
X357498D01*
X361497Y657501D01*
Y656502D01*
X360497Y655502D01*
X358498D01*
X357498Y656502D01*
X367495Y655502D02*
X365495Y656502D01*
X363496Y658501D01*
Y660500D01*
X364496Y661500D01*
X366495D01*
X367495Y660500D01*
Y659501D01*
X366495Y658501D01*
X363496D01*
X266999Y752502D02*
X265999Y751502D01*
X264000D01*
X263000Y752502D01*
Y756500D01*
X264000Y757500D01*
X265999D01*
X266999Y756500D01*
X272997Y757500D02*
X268998D01*
X272997Y753501D01*
Y752502D01*
X271997Y751502D01*
X269998D01*
X268998Y752502D01*
X278995Y751502D02*
X274996D01*
Y754501D01*
X276995Y753501D01*
X277995D01*
X278995Y754501D01*
Y756500D01*
X277995Y757500D01*
X275996D01*
X274996Y756500D01*
X353999Y613735D02*
X352999Y612736D01*
X351000D01*
X350000Y613735D01*
Y617734D01*
X351000Y618734D01*
X352999D01*
X353999Y617734D01*
X359997Y618734D02*
X355998D01*
X359997Y614735D01*
Y613735D01*
X358997Y612736D01*
X356998D01*
X355998Y613735D01*
X361996D02*
X362996Y612736D01*
X364995D01*
X365995Y613735D01*
Y614735D01*
X364995Y615735D01*
X363996D01*
X364995D01*
X365995Y616735D01*
Y617734D01*
X364995Y618734D01*
X362996D01*
X361996Y617734D01*
X356499Y665002D02*
X355499Y664002D01*
X353500D01*
X352500Y665002D01*
Y669000D01*
X353500Y670000D01*
X355499D01*
X356499Y669000D01*
X362497Y670000D02*
X358498D01*
X362497Y666001D01*
Y665002D01*
X361497Y664002D01*
X359498D01*
X358498Y665002D01*
X368495Y670000D02*
X364496D01*
X368495Y666001D01*
Y665002D01*
X367495Y664002D01*
X365496D01*
X364496Y665002D01*
X268499Y762502D02*
X267499Y761502D01*
X265500D01*
X264500Y762502D01*
Y766500D01*
X265500Y767500D01*
X267499D01*
X268499Y766500D01*
X274497Y767500D02*
X270498D01*
X274497Y763501D01*
Y762502D01*
X273497Y761502D01*
X271498D01*
X270498Y762502D01*
X276496Y767500D02*
X278496D01*
X277496D01*
Y761502D01*
X276496Y762502D01*
X365214Y637913D02*
X366214Y638913D01*
X368213D01*
X369213Y637913D01*
Y633915D01*
X368213Y632915D01*
X366214D01*
X365214Y633915D01*
X363214Y632915D02*
X361215D01*
X362215D01*
Y638913D01*
X363214Y637913D01*
X358216Y633915D02*
X357217Y632915D01*
X355217D01*
X354218Y633915D01*
Y637913D01*
X355217Y638913D01*
X357217D01*
X358216Y637913D01*
Y636914D01*
X357217Y635914D01*
X354218D01*
X358499Y675002D02*
X357499Y674002D01*
X355500D01*
X354500Y675002D01*
Y679000D01*
X355500Y680000D01*
X357499D01*
X358499Y679000D01*
X360498Y680000D02*
X362497D01*
X361498D01*
Y674002D01*
X360498Y675002D01*
X365496D02*
X366496Y674002D01*
X368495D01*
X369495Y675002D01*
Y676001D01*
X368495Y677001D01*
X369495Y678001D01*
Y679000D01*
X368495Y680000D01*
X366496D01*
X365496Y679000D01*
Y678001D01*
X366496Y677001D01*
X365496Y676001D01*
Y675002D01*
X366496Y677001D02*
X368495D01*
X269501Y734998D02*
X270501Y735998D01*
X272500D01*
X273500Y734998D01*
Y731000D01*
X272500Y730000D01*
X270501D01*
X269501Y731000D01*
X267502Y730000D02*
X265503D01*
X266502D01*
Y735998D01*
X267502Y734998D01*
X262504Y735998D02*
X258505D01*
Y734998D01*
X262504Y731000D01*
Y730000D01*
X389601Y658098D02*
X390601Y659098D01*
X392600D01*
X393600Y658098D01*
Y654100D01*
X392600Y653100D01*
X390601D01*
X389601Y654100D01*
X387602Y653100D02*
X385603D01*
X386602D01*
Y659098D01*
X387602Y658098D01*
X378605Y659098D02*
X380604Y658098D01*
X382604Y656099D01*
Y654100D01*
X381604Y653100D01*
X379605D01*
X378605Y654100D01*
Y655099D01*
X379605Y656099D01*
X382604D01*
X282702Y531808D02*
X281703Y532808D01*
Y534807D01*
X282702Y535807D01*
X286701D01*
X287701Y534807D01*
Y532808D01*
X286701Y531808D01*
X287701Y529809D02*
Y527810D01*
Y528809D01*
X281703D01*
X282702Y529809D01*
Y524811D02*
X281703Y523811D01*
Y521812D01*
X282702Y520812D01*
X283702D01*
X284702Y521812D01*
Y522811D01*
Y521812D01*
X285701Y520812D01*
X286701D01*
X287701Y521812D01*
Y523811D01*
X286701Y524811D01*
X284202Y513808D02*
X283203Y514808D01*
Y516807D01*
X284202Y517807D01*
X288201D01*
X289201Y516807D01*
Y514808D01*
X288201Y513808D01*
X289201Y511809D02*
Y509810D01*
Y510809D01*
X283203D01*
X284202Y511809D01*
X289201Y502812D02*
Y506811D01*
X285202Y502812D01*
X284202D01*
X283203Y503812D01*
Y505811D01*
X284202Y506811D01*
X411451Y523546D02*
X412451Y522546D01*
Y520547D01*
X411451Y519547D01*
X407452D01*
X406453Y520547D01*
Y522546D01*
X407452Y523546D01*
X406453Y525545D02*
Y527545D01*
Y526545D01*
X412451D01*
X411451Y525545D01*
X406453Y530544D02*
Y532543D01*
Y531543D01*
X412451D01*
X411451Y530544D01*
X383454Y547548D02*
X382455Y548548D01*
Y550548D01*
X383454Y551547D01*
X387453D01*
X388453Y550548D01*
Y548548D01*
X387453Y547548D01*
X388453Y545549D02*
Y543550D01*
Y544550D01*
X382455D01*
X383454Y545549D01*
Y540551D02*
X382455Y539551D01*
Y537552D01*
X383454Y536552D01*
X387453D01*
X388453Y537552D01*
Y539551D01*
X387453Y540551D01*
X383454D01*
X325200Y511809D02*
X324200Y510809D01*
X322200D01*
X321201Y511809D01*
Y515807D01*
X322200Y516807D01*
X324200D01*
X325200Y515807D01*
X327199D02*
X328199Y516807D01*
X330198D01*
X331198Y515807D01*
Y511809D01*
X330198Y510809D01*
X328199D01*
X327199Y511809D01*
Y512808D01*
X328199Y513808D01*
X331198D01*
X335199Y538309D02*
X334200Y537309D01*
X332201D01*
X331201Y538309D01*
Y542307D01*
X332201Y543307D01*
X334200D01*
X335199Y542307D01*
X337199Y538309D02*
X338198Y537309D01*
X340198D01*
X341198Y538309D01*
Y539308D01*
X340198Y540308D01*
X341198Y541308D01*
Y542307D01*
X340198Y543307D01*
X338198D01*
X337199Y542307D01*
Y541308D01*
X338198Y540308D01*
X337199Y539308D01*
Y538309D01*
X338198Y540308D02*
X340198D01*
X347999Y512502D02*
X346999Y511502D01*
X345000D01*
X344000Y512502D01*
Y516500D01*
X345000Y517500D01*
X346999D01*
X347999Y516500D01*
X349998Y511502D02*
X353997D01*
Y512502D01*
X349998Y516500D01*
Y517500D01*
X358452Y540049D02*
X357452Y539049D01*
X355452D01*
X354453Y540049D01*
Y544048D01*
X355452Y545047D01*
X357452D01*
X358452Y544048D01*
X364450Y539049D02*
X362450Y540049D01*
X360451Y542048D01*
Y544048D01*
X361451Y545047D01*
X363450D01*
X364450Y544048D01*
Y543048D01*
X363450Y542048D01*
X360451D01*
X373454Y510546D02*
X374454Y511545D01*
X376453D01*
X377453Y510546D01*
Y506547D01*
X376453Y505547D01*
X374454D01*
X373454Y506547D01*
X367456Y511545D02*
X371455D01*
Y508546D01*
X369455Y509546D01*
X368456D01*
X367456Y508546D01*
Y506547D01*
X368456Y505547D01*
X370455D01*
X371455Y506547D01*
D65*
X366945Y535539D02*
G03*
X366945Y535539I-492J0D01*
G01*
X465685Y475059D02*
G03*
X465685Y475059I-492J0D01*
G01*
D67*
X352287Y639734D02*
G03*
X352287Y639734I-394J0D01*
G01*
X297287Y735500D02*
G03*
X297287Y735500I-394J0D01*
G01*
X332500Y673500D02*
G03*
X332500Y673500I-394J0D01*
G01*
X340213Y639384D02*
X341787D01*
X340213Y633084D02*
X341787D01*
X285213Y735150D02*
X286788D01*
X285213Y728850D02*
X286788D01*
X342213Y680150D02*
X343787D01*
X342213Y673850D02*
X343787D01*
X367047Y518264D02*
Y532831D01*
X378858Y518264D02*
Y532831D01*
X460862Y465217D02*
X462043D01*
X460862Y473878D02*
X462043D01*
X398449Y800976D02*
Y818693D01*
Y800976D02*
X421677D01*
Y818693D01*
X398449D02*
X421677D01*
D69*
X427000Y811763D02*
X423983D01*
X425491Y813272D02*
Y810254D01*
M02*
