%FSLAX25Y25*%
%MOIN*%
G70*
G01*
G75*
G04 Layer_Physical_Order=2*
G04 Layer_Color=16711680*
%ADD10R,0.03150X0.06299*%
%ADD11O,0.12598X0.02362*%
%ADD12R,0.00945X0.11811*%
%ADD13R,0.11811X0.00945*%
%ADD14O,0.11811X0.00945*%
%ADD15R,0.03937X0.04331*%
%ADD16R,0.05906X0.05118*%
%ADD17R,0.05118X0.05906*%
%ADD18R,0.09449X0.07087*%
%ADD19R,0.07874X0.04724*%
%ADD20R,0.08268X0.02362*%
%ADD21R,0.17716X0.19685*%
%ADD22R,0.08661X0.11811*%
%ADD23R,0.11024X0.07874*%
%ADD24R,0.06299X0.03150*%
%ADD25R,0.11000X0.15000*%
%ADD26R,0.10984X0.11811*%
%ADD27R,0.06496X0.04724*%
%ADD28R,0.06496X0.04528*%
%ADD29R,0.06299X0.10630*%
%ADD30R,0.10236X0.09449*%
%ADD31R,0.06299X0.07087*%
%ADD32R,0.07087X0.06299*%
%ADD33R,0.08661X0.13386*%
%ADD34R,0.04528X0.06496*%
%ADD35R,0.04724X0.06496*%
%ADD36R,0.07874X0.01378*%
%ADD37O,0.07874X0.01378*%
%ADD38R,0.06500X0.11201*%
%ADD39R,0.09055X0.05906*%
%ADD40R,0.09055X0.05906*%
%ADD41R,0.09055X0.09055*%
%ADD42R,0.05512X0.14961*%
%ADD43R,0.07284X0.01575*%
%ADD44R,0.23622X0.23622*%
%ADD45O,0.00669X0.05709*%
%ADD46R,0.00669X0.05709*%
%ADD47C,0.02500*%
%ADD48C,0.01000*%
%ADD49C,0.00800*%
%ADD50C,0.00600*%
%ADD51C,0.00661*%
%ADD52C,0.00700*%
%ADD53C,0.02205*%
%ADD54C,0.01654*%
%ADD55C,0.00965*%
%ADD56C,0.01102*%
%ADD57C,0.00900*%
%ADD58C,0.05906*%
%ADD59R,0.05906X0.05906*%
%ADD60C,0.06000*%
%ADD61R,0.05906X0.05906*%
%ADD62C,0.15748*%
%ADD63C,0.05000*%
%ADD64R,0.08661X0.07874*%
D16*
X490000Y338260D02*
D03*
Y345740D02*
D03*
X480000Y338260D02*
D03*
Y345740D02*
D03*
X470000Y338260D02*
D03*
Y345740D02*
D03*
X460000Y338260D02*
D03*
Y345740D02*
D03*
X256394Y682441D02*
D03*
Y674961D02*
D03*
X244394Y682441D02*
D03*
Y674961D02*
D03*
X478000Y578260D02*
D03*
Y585740D02*
D03*
X400701Y522567D02*
D03*
Y530047D02*
D03*
X326701Y522567D02*
D03*
Y530047D02*
D03*
X336701Y522567D02*
D03*
Y530047D02*
D03*
X348701Y522567D02*
D03*
Y530047D02*
D03*
X360701Y522567D02*
D03*
Y530047D02*
D03*
X452500Y591740D02*
D03*
Y584260D02*
D03*
X386953Y529287D02*
D03*
Y521807D02*
D03*
X477453Y473287D02*
D03*
Y465807D02*
D03*
D17*
X292961Y524307D02*
D03*
X300441D02*
D03*
X294961Y510307D02*
D03*
X302441D02*
D03*
X337260Y626234D02*
D03*
X344740D02*
D03*
X346740Y659000D02*
D03*
X339260D02*
D03*
X284260Y754000D02*
D03*
X291740D02*
D03*
X337260Y616234D02*
D03*
X344740D02*
D03*
X346740Y667000D02*
D03*
X339260D02*
D03*
X284260Y762000D02*
D03*
X291740D02*
D03*
X391240Y646000D02*
D03*
X383760D02*
D03*
X391240Y626000D02*
D03*
X383760D02*
D03*
X389740Y696000D02*
D03*
X382260D02*
D03*
X306260Y492000D02*
D03*
X313740D02*
D03*
X313213Y483547D02*
D03*
X320693D02*
D03*
X323213Y473547D02*
D03*
X330693D02*
D03*
X311213Y549547D02*
D03*
X318693D02*
D03*
Y523547D02*
D03*
X311213D02*
D03*
D31*
X346512Y636234D02*
D03*
X335488D02*
D03*
X291512Y732000D02*
D03*
X280488D02*
D03*
X348512Y677000D02*
D03*
X337488D02*
D03*
D43*
X456138Y472106D02*
D03*
Y469547D02*
D03*
Y466988D02*
D03*
X466768D02*
D03*
Y469547D02*
D03*
Y472106D02*
D03*
D47*
X474000Y562000D02*
Y562500D01*
Y562000D02*
X474500Y561500D01*
X478000Y566500D02*
Y578260D01*
X474000Y562500D02*
X478000Y566500D01*
X454300Y675300D02*
X459000Y680000D01*
X450600Y675300D02*
X454300D01*
X446000Y679900D02*
X448000Y677900D01*
X409081Y742919D02*
X446000Y706000D01*
X319500Y502500D02*
X324500D01*
X302441Y510307D02*
X305200D01*
X334600Y512600D02*
X391400D01*
X324500Y502500D02*
X334600Y512600D01*
X316000Y512850D02*
X317500Y511350D01*
X308743Y512850D02*
X316000D01*
X306200Y510307D02*
X308743Y512850D01*
X305200Y510307D02*
X306200D01*
X317500Y504500D02*
X319500Y502500D01*
X317500Y504500D02*
Y511350D01*
X300441Y518300D02*
Y524307D01*
Y518300D02*
X302441Y516300D01*
Y510307D02*
Y516300D01*
X227722Y501166D02*
X237500Y491387D01*
X390000Y926800D02*
Y938000D01*
X382100Y918900D02*
X390000Y926800D01*
X246000Y724000D02*
X251203Y729203D01*
X272097D01*
X275100Y726200D01*
X290000D01*
X291512Y727712D01*
Y732000D01*
X291740Y754000D02*
Y762000D01*
Y749840D02*
Y754000D01*
X290000Y748100D02*
X291740Y749840D01*
X290000Y744000D02*
Y748100D01*
X291512Y732000D02*
Y737200D01*
X290000Y738712D02*
X291512Y737200D01*
X290000Y738712D02*
Y744000D01*
X327419D01*
X446000Y679900D02*
Y706000D01*
X327419Y744000D02*
X328500Y742919D01*
X409081D01*
X383760Y626000D02*
Y646000D01*
X380750Y626000D02*
X383760D01*
X380000Y626750D02*
X380750Y626000D01*
X365251Y626750D02*
X380000D01*
X364735Y626234D02*
X365251Y626750D01*
X344740Y626234D02*
X364735D01*
X337488Y672872D02*
Y677000D01*
Y672872D02*
X339260Y671100D01*
Y667000D02*
Y671100D01*
X344740Y616234D02*
Y626234D01*
X339260Y659000D02*
Y667000D01*
X344740Y626234D02*
Y630300D01*
X346512Y632072D01*
Y636234D01*
X339260Y655977D02*
Y659000D01*
X346512Y636234D02*
Y643300D01*
X345000Y644812D02*
X346512Y643300D01*
X339260Y655977D02*
X346512Y648725D01*
X345000Y644812D02*
Y645500D01*
X460000Y338260D02*
X470000D01*
X480000D01*
X490000D01*
X499900D01*
X382260Y688960D02*
Y696000D01*
X378800Y685500D02*
X382260Y688960D01*
X363704Y685500D02*
X378800D01*
X350407Y698797D02*
X363704Y685500D01*
X269203Y698797D02*
X350407D01*
X262000Y706000D02*
X269203Y698797D01*
X239100Y707100D02*
X256000Y724000D01*
X239100Y676000D02*
Y707100D01*
Y676000D02*
X240139Y674961D01*
X244394D01*
X256394D01*
X266000Y724000D02*
X269000Y721000D01*
X410000D01*
Y689327D02*
Y721000D01*
X388106Y667433D02*
X410000Y689327D01*
X364633Y667433D02*
X388106D01*
X354700Y657500D02*
X364633Y667433D01*
X394160Y530047D02*
X400701D01*
X393400Y529287D02*
X394160Y530047D01*
X386953Y529287D02*
X393400D01*
X360701Y530047D02*
X362454D01*
X365200Y532793D02*
Y539400D01*
X362454Y530047D02*
X365200Y532793D01*
X362454Y530047D02*
X366100D01*
X367506Y531453D01*
X372953D01*
X380965Y529287D02*
X386953D01*
X378800Y531453D02*
X380965Y529287D01*
X372953Y531453D02*
X378800D01*
X360000Y879300D02*
Y938000D01*
X234700Y754000D02*
X360000Y879300D01*
X234700Y638241D02*
Y754000D01*
Y638241D02*
X318693Y554248D01*
Y549547D02*
Y554248D01*
X348701Y530047D02*
X360701D01*
X336701D02*
X348701D01*
X326701D02*
X336701D01*
X318693Y546000D02*
Y549547D01*
X273400Y543100D02*
X277450Y539050D01*
X266000Y543100D02*
X273400D01*
X265950Y543050D02*
X266000Y543100D01*
X232750Y530000D02*
X245800Y543050D01*
X311743Y539050D02*
X318693Y546000D01*
X277450Y539050D02*
X311743D01*
X263900Y535550D02*
Y541000D01*
Y535550D02*
X266000Y533450D01*
X318193D01*
X321596Y530047D01*
X326701D01*
X377302Y935302D02*
X380000Y938000D01*
X377302Y892698D02*
Y935302D01*
X374700Y943300D02*
X380000Y938000D01*
X313500Y943300D02*
X374700D01*
X268000Y897800D02*
X313500Y943300D01*
X447453Y499500D02*
X473665Y473287D01*
X337700Y499200D02*
X447453Y499500D01*
X394160Y522567D02*
X400701D01*
X393400Y521807D02*
X394160Y522567D01*
X386953Y521807D02*
X393400D01*
X335488Y632072D02*
Y636234D01*
Y632072D02*
X337260Y630300D01*
Y626234D02*
Y630300D01*
X380965Y521807D02*
X386953D01*
X378800Y519642D02*
X380965Y521807D01*
X372953Y519642D02*
X378800D01*
X337260Y616234D02*
Y626234D01*
X331100Y615300D02*
X332034Y616234D01*
X337260D01*
X368225Y519642D02*
X372953D01*
X365300Y522567D02*
X368225Y519642D01*
X360701Y522567D02*
X365300D01*
X348701D02*
X360701D01*
X336701D02*
X348701D01*
X309665Y483547D02*
X313213D01*
X305213Y488000D02*
X309665Y483547D01*
X300000Y493547D02*
X305213D01*
X294961Y498587D02*
X300000Y493547D01*
X294961Y498587D02*
Y510307D01*
X326701Y522567D02*
X336701D01*
X323180D02*
X326701D01*
X322200Y523547D02*
X323180Y522567D01*
X318693Y523547D02*
X322200D01*
X318693D02*
Y528000D01*
X316743Y529950D02*
X318693Y528000D01*
X294911Y529950D02*
X316743D01*
X292961Y528000D02*
X294911Y529950D01*
X292961Y524307D02*
Y528000D01*
X294961Y510307D02*
Y516300D01*
X292961Y518300D02*
X294961Y516300D01*
X292961Y518300D02*
Y524307D01*
X475193Y465807D02*
X477453D01*
X234500Y524000D02*
X234807Y524307D01*
X388210Y455019D02*
X470472D01*
X477453Y462000D02*
Y465807D01*
X470472Y455019D02*
X477453Y462000D01*
X323213Y469187D02*
X337381Y455019D01*
X323213Y469187D02*
Y473547D01*
X243000Y524300D02*
X255150Y512150D01*
Y503404D02*
Y512150D01*
Y503404D02*
X285007Y473547D01*
X323213D01*
X352500Y647500D02*
Y649440D01*
X346740Y655200D02*
X352500Y649440D01*
X346740Y655200D02*
Y659000D01*
X284260Y754000D02*
Y762000D01*
X244000Y740000D02*
X251200Y732800D01*
X240000Y744000D02*
X244000Y740000D01*
X274800Y732000D02*
X280488D01*
X274000Y732800D02*
X274800Y732000D01*
X251200Y732800D02*
X274000D01*
X244000Y750000D02*
X248000Y754000D01*
X284260D01*
X346740Y659000D02*
Y667000D01*
X402000Y692372D02*
Y706000D01*
X386628Y677000D02*
X402000Y692372D01*
X348512Y677000D02*
X386628D01*
X346740Y667000D02*
Y671100D01*
X348512Y672872D01*
Y677000D01*
Y693692D01*
X256394Y692000D02*
X259280Y694886D01*
X256394Y682441D02*
Y692000D01*
X347318Y694886D02*
X348512Y693692D01*
X259280Y694886D02*
X347318D01*
X256394Y692000D02*
Y701606D01*
X252000Y706000D02*
X256394Y701606D01*
X244394Y682441D02*
X256394D01*
X461000Y759000D02*
X479500D01*
X496500Y742000D01*
X473600Y578260D02*
X478000D01*
X471100Y580760D02*
X473600Y578260D01*
X471100Y580760D02*
Y599003D01*
X461503D02*
X471100D01*
X459300Y596800D02*
X461503Y599003D01*
X459300Y585960D02*
Y596800D01*
X457600Y584260D02*
X459300Y585960D01*
X452500Y584260D02*
X457600D01*
X389500Y591000D02*
X436300D01*
X443040Y584260D01*
X452500D01*
X383760Y649260D02*
X385600Y651100D01*
X395900D02*
X422700Y677900D01*
X448000D01*
X450600Y675300D01*
Y648900D02*
Y675300D01*
X437700Y636000D02*
X450600Y648900D01*
X437700Y635200D02*
Y636000D01*
Y635200D02*
X459700Y613200D01*
Y606800D02*
Y613200D01*
X445300Y602200D02*
X452500Y595000D01*
Y591740D02*
Y595000D01*
X459700Y606800D02*
X474600D01*
X484300Y597100D01*
X483660Y585740D02*
X484300Y585100D01*
X478000Y585740D02*
X483660D01*
X409700Y625600D02*
Y640300D01*
X404800Y620700D02*
X409700Y625600D01*
X377300Y620700D02*
X404800D01*
X374750Y623250D02*
X377300Y620700D01*
X368200Y623250D02*
X374750D01*
X366750Y621800D02*
X368200Y623250D01*
X352000Y621800D02*
X366750D01*
X349549Y619349D02*
X352000Y621800D01*
X349549Y611031D02*
Y619349D01*
X341000Y611031D02*
X349549D01*
X339931Y612100D02*
X341000Y611031D01*
X337260Y612100D02*
Y616234D01*
X435937Y646000D02*
X446000Y656063D01*
X415500Y646000D02*
X435937D01*
X305200Y502500D02*
Y510307D01*
X346512Y643300D02*
Y645500D01*
Y648725D01*
X383760Y646000D02*
Y649192D01*
Y649260D01*
X385600Y651100D02*
X385668D01*
X395900D01*
X383760Y649192D02*
X385668Y651100D01*
X263900Y541000D02*
X265950Y543050D01*
X266000Y543100D01*
X245800Y543050D02*
X265950D01*
X452937Y817063D02*
X454000Y816000D01*
X377302Y892698D02*
X452937Y817063D01*
X305213Y488000D02*
Y492000D01*
Y493547D01*
X234807Y524307D02*
X243000D01*
X292961D01*
X337381Y455019D02*
X384579D01*
X388210D01*
X470472D01*
X337260Y612100D02*
X339931D01*
X244000Y740000D02*
Y744000D01*
Y750000D01*
X384579Y458650D02*
X388210Y455019D01*
X404000Y646000D02*
X409700Y640300D01*
X404000Y646000D02*
X415500D01*
X435937D01*
X391240D02*
X404000D01*
X415500D01*
X435937D01*
D48*
X360017Y609634D02*
Y610800D01*
X358217Y612600D02*
X360017Y610800D01*
X359483Y609100D02*
X360017Y609634D01*
X357118Y609100D02*
X359483D01*
X284100Y636900D02*
Y641733D01*
Y636900D02*
X308000Y613000D01*
X322007D01*
X328726Y606281D01*
X354299D01*
X357118Y609100D01*
X463200Y466988D02*
X466768D01*
X463200Y463400D02*
X464600Y462000D01*
X466500D01*
X456500Y477500D02*
X457400D01*
X459200Y475700D01*
X456138Y472106D02*
X459200Y472106D01*
X335396Y492900D02*
X356190Y472106D01*
X456138D01*
Y472106D01*
X328000Y494367D02*
Y501367D01*
X355378Y466988D02*
X456138D01*
X333933Y507300D02*
X358500D01*
X328000Y501367D02*
X333933Y507300D01*
X328000Y494367D02*
X330000Y492367D01*
Y497965D02*
X336835Y504800D01*
X355600Y618500D02*
X372500D01*
X352299Y615199D02*
X355600Y618500D01*
X352299Y609581D02*
Y615199D01*
X351000Y608281D02*
X352299Y609581D01*
X331726Y608281D02*
X351000D01*
X324955Y615052D02*
X331726Y608281D01*
X312948Y615052D02*
X324955D01*
X289700Y638300D02*
X312948Y615052D01*
X289700Y638300D02*
Y643300D01*
X285433Y647567D02*
X289700Y643300D01*
X280433Y647567D02*
X285433D01*
X276500Y651500D02*
X280433Y647567D01*
X276500Y651500D02*
Y655800D01*
X312200Y797700D02*
Y800500D01*
X302200Y805000D02*
X312200Y800500D01*
X396900Y626000D02*
X404900Y634000D01*
X391240Y626000D02*
X396900D01*
X308000Y549547D02*
X311213D01*
X306700Y548247D02*
X308000Y549547D01*
X306700Y543800D02*
Y548247D01*
X311213Y520187D02*
Y523547D01*
Y520187D02*
X315800Y515600D01*
X319131D01*
X323000Y511731D01*
Y507500D02*
Y511731D01*
X389740Y703740D02*
X392000Y706000D01*
X389740Y696000D02*
Y703740D01*
X438750Y758750D02*
X452400Y745100D01*
X485300D01*
X330693Y473547D02*
Y477000D01*
X329693Y478000D02*
X330693Y477000D01*
X319100Y478000D02*
X329693D01*
X317800Y476700D02*
X319100Y478000D01*
X293200Y476700D02*
X317800D01*
X269100Y500800D02*
X293200Y476700D01*
X320693Y480000D02*
Y483547D01*
X318154Y480000D02*
X320693D01*
X317153Y479000D02*
X318154Y480000D01*
X296900Y479000D02*
X317153D01*
X261900Y514000D02*
X296900Y479000D01*
X312700Y506400D02*
Y508100D01*
X310445Y504145D02*
X312700Y506400D01*
X310445Y498255D02*
Y504145D01*
Y498255D02*
X312693Y496007D01*
Y493547D02*
Y496007D01*
X393000Y818000D02*
X409000D01*
X440000Y812000D02*
X444000Y816000D01*
X414000Y812000D02*
X440000D01*
X282000Y706000D02*
X286500Y710500D01*
X394000D01*
X396500Y708000D01*
Y695300D02*
Y708000D01*
X403000Y713000D02*
Y715000D01*
X402500Y712500D02*
X403000Y713000D01*
X279800Y712500D02*
X402500D01*
X277500Y710200D02*
X279800Y712500D01*
X277500Y704000D02*
Y710200D01*
Y704000D02*
X279953Y701547D01*
X287547D01*
X292000Y706000D01*
X375000Y691000D02*
Y693600D01*
X367053Y701547D02*
X375000Y693600D01*
X309953Y701547D02*
X367053D01*
X305500Y706000D02*
X309953Y701547D01*
X302000Y706000D02*
X305500D01*
X339400Y568600D02*
X417900D01*
X320700Y587300D02*
X339400Y568600D01*
X320700Y587300D02*
Y593400D01*
X272500Y641600D02*
X320700Y593400D01*
X272500Y641600D02*
Y658100D01*
X276000Y661600D01*
X287800D01*
X291599Y657801D01*
X308554D01*
X319677Y668923D01*
X385800Y566100D02*
X429400Y522500D01*
X334576Y566100D02*
X385800D01*
X318676Y582000D02*
X334576Y566100D01*
X318676Y582000D02*
Y590920D01*
X264000Y645596D02*
X318676Y590920D01*
X264000Y645596D02*
Y657105D01*
X276795Y669900D01*
X295100D01*
X424500Y517000D02*
Y518900D01*
X393600Y549800D02*
X424500Y518900D01*
X336100Y549800D02*
X393600D01*
X260900Y625000D02*
X336100Y549800D01*
X260900Y625000D02*
Y660000D01*
X278600Y677700D01*
X297300D01*
X306200Y668800D01*
X313600Y674500D01*
X299500Y681500D02*
X304500Y676500D01*
X270800Y681500D02*
X299500D01*
X265300Y676000D02*
X270800Y681500D01*
X265300Y670900D02*
Y676000D01*
X261400Y667000D02*
X265300Y670900D01*
X259500Y667000D02*
X261400D01*
X490000Y345740D02*
Y351900D01*
X489394Y352506D02*
X490000Y351900D01*
X489394Y352506D02*
Y358701D01*
X228700Y532200D02*
X276900Y580400D01*
X228700Y523800D02*
Y532200D01*
Y523800D02*
X300700Y451800D01*
X386295D01*
X479394Y358701D01*
X480000Y345740D02*
Y351900D01*
X479394Y352506D02*
X480000Y351900D01*
X479394Y352506D02*
Y358701D01*
X319264Y691600D02*
X328364Y682500D01*
X274500Y691600D02*
X319264D01*
X272500Y689600D02*
X274500Y691600D01*
X226000Y537100D02*
X270800Y581900D01*
X226000Y515253D02*
Y537100D01*
Y515253D02*
X376653Y364600D01*
X463495D01*
X469394Y358701D01*
X470000Y345740D02*
Y351900D01*
X469394Y352506D02*
X470000Y351900D01*
X469394Y352506D02*
Y358701D01*
X460000Y345740D02*
Y351900D01*
X459394Y352506D02*
X460000Y351900D01*
X459394Y352506D02*
Y358701D01*
X280500Y665900D02*
X300300D01*
X280100Y599600D02*
X340500Y539200D01*
X350300D01*
X305800Y662700D02*
X311800Y668700D01*
X313600D02*
X317600Y672700D01*
Y677000D01*
X311800Y668700D02*
X313600D01*
X316100Y678500D02*
X317600Y677000D01*
X308200Y678500D02*
X316100D01*
X299100Y687600D02*
X308200Y678500D01*
X285500Y612300D02*
X339700Y558100D01*
X375100D01*
X433800Y463500D02*
X437500Y459800D01*
X354500Y463500D02*
X433800D01*
X318000Y500000D02*
X354500Y463500D01*
X316445Y500000D02*
X318000D01*
X316000Y499555D02*
X316445Y500000D01*
X316000Y499000D02*
Y499555D01*
X329500Y654500D02*
X329571Y654571D01*
X328537Y656463D02*
X329500Y655500D01*
X323800Y656463D02*
X328537D01*
X300000Y632663D02*
X323800Y656463D01*
X300000Y632000D02*
Y632663D01*
Y632000D02*
X305400Y626600D01*
X316100D01*
X324400Y598100D02*
X405453D01*
X409900Y602547D01*
X357500Y534700D02*
X359500Y536700D01*
X334900Y534700D02*
X357500D01*
X333400Y536200D02*
X334900Y534700D01*
X270793Y536200D02*
X333400D01*
X268693Y538300D02*
X270793Y536200D01*
X489394Y358701D02*
Y530106D01*
X470500Y549000D02*
X489394Y530106D01*
X456000Y549000D02*
X470500D01*
X417837Y587163D02*
X456000Y549000D01*
X385695Y587163D02*
X417837D01*
X382058Y590800D02*
X385695Y587163D01*
X324700Y590800D02*
X382058D01*
X307500Y633800D02*
X322400D01*
X335701Y647101D01*
X476500Y652600D02*
Y693200D01*
X422000Y747700D02*
X476500Y693200D01*
X331500Y747700D02*
X422000D01*
X331500Y680200D02*
X341400Y690100D01*
X331500Y660500D02*
Y680200D01*
X323886Y604281D02*
X356299D01*
X359118Y607100D01*
X446100D01*
X450409Y602791D01*
X472000D01*
X485490Y589300D01*
X486400D01*
X496500Y599400D01*
Y722000D01*
X443900Y635500D02*
X466700Y612700D01*
X484542D01*
X492000Y605242D01*
X496500Y752000D02*
X501000Y747500D01*
Y740000D02*
Y747500D01*
X498500Y737500D02*
X501000Y740000D01*
X440100Y737500D02*
X498500D01*
X493000Y765500D02*
X496500Y762000D01*
X419000Y765500D02*
X493000D01*
X376500Y652000D02*
X386500Y662000D01*
X376500Y646500D02*
Y652000D01*
X463200Y463400D02*
Y466988D01*
X459200Y472106D02*
Y475700D01*
X330000Y492367D02*
X355378Y466988D01*
X328000Y494367D02*
X330000Y492367D01*
Y497965D01*
X336835Y504800D02*
X358500D01*
X467453D01*
X357017Y613800D02*
X358217D01*
X449900D01*
X414500Y812500D02*
X414750Y812250D01*
X409000Y818000D02*
X414500Y812500D01*
X329500Y654500D02*
Y654571D01*
Y655500D01*
D55*
X317500Y788500D02*
X321500D01*
X322090Y789090D01*
X322548D01*
X322856Y788783D01*
Y782067D02*
Y788783D01*
X322288Y781500D02*
X322856Y782067D01*
X319000Y781500D02*
X322288D01*
X318000Y780500D02*
X319000Y781500D01*
D56*
X473665Y473287D02*
X477453D01*
X466768Y472106D02*
Y473287D01*
Y469547D02*
X471453D01*
X475193Y465807D01*
X466768Y473287D02*
X473665D01*
D58*
X451874Y816000D02*
D03*
X351874Y842000D02*
D03*
X496500Y772000D02*
D03*
Y762000D02*
D03*
Y752000D02*
D03*
Y742000D02*
D03*
Y732000D02*
D03*
X479394Y358701D02*
D03*
X469394D02*
D03*
X459394D02*
D03*
X449394D02*
D03*
X439394D02*
D03*
X429394D02*
D03*
X419394D02*
D03*
X256000Y724000D02*
D03*
X246000D02*
D03*
X280000Y744000D02*
D03*
X270000D02*
D03*
X260000D02*
D03*
X250000D02*
D03*
X240000D02*
D03*
X350000Y938000D02*
D03*
X360000D02*
D03*
X370000D02*
D03*
X380000D02*
D03*
X466000Y584000D02*
D03*
Y574000D02*
D03*
Y564000D02*
D03*
Y554000D02*
D03*
Y544000D02*
D03*
X402000Y706000D02*
D03*
X392000D02*
D03*
X382000D02*
D03*
X372000D02*
D03*
X362000D02*
D03*
X352000D02*
D03*
X342000D02*
D03*
X332000D02*
D03*
X322000D02*
D03*
X312000D02*
D03*
X302000D02*
D03*
X292000D02*
D03*
X282000D02*
D03*
X272000D02*
D03*
X262000D02*
D03*
X406126Y812000D02*
D03*
D59*
X444000Y816000D02*
D03*
X344000Y842000D02*
D03*
X489394Y358701D02*
D03*
X266000Y724000D02*
D03*
X290000Y744000D02*
D03*
X390000Y938000D02*
D03*
X252000Y706000D02*
D03*
X414000Y812000D02*
D03*
D60*
X458500Y779500D02*
D03*
X438500Y759500D02*
D03*
X458500D02*
D03*
X438500Y779500D02*
D03*
D61*
X496500Y722000D02*
D03*
X466000Y594000D02*
D03*
D62*
X276800Y933800D02*
D03*
X473600D02*
D03*
X217700Y666100D02*
D03*
X532700D02*
D03*
Y429900D02*
D03*
X217700D02*
D03*
D63*
X474500Y561500D02*
D03*
X375000Y691000D02*
D03*
X459000Y680000D02*
D03*
X305200Y502500D02*
D03*
X391400Y512600D02*
D03*
X227722Y501166D02*
D03*
X237500Y491387D02*
D03*
X382100Y918900D02*
D03*
X345000Y645500D02*
D03*
X499900Y338260D02*
D03*
X354700Y657500D02*
D03*
X365200Y539400D02*
D03*
X232750Y530000D02*
D03*
X268000Y897800D02*
D03*
X447453Y499500D02*
D03*
X337700Y499200D02*
D03*
X466500Y462000D02*
D03*
X456500Y477500D02*
D03*
X335396Y492900D02*
D03*
X358500Y507300D02*
D03*
X467453Y504800D02*
D03*
X372500Y618500D02*
D03*
X276500Y655800D02*
D03*
X284100Y641733D02*
D03*
X317500Y788500D02*
D03*
X318000Y780500D02*
D03*
X312200Y797700D02*
D03*
X302200Y805000D02*
D03*
X404900Y634000D02*
D03*
X306700Y543800D02*
D03*
X323000Y507500D02*
D03*
X485300Y745100D02*
D03*
X269100Y500800D02*
D03*
X261900Y514000D02*
D03*
X312700Y508100D02*
D03*
X393000Y818000D02*
D03*
X396500Y695300D02*
D03*
X403000Y715000D02*
D03*
X417900Y568600D02*
D03*
X319677Y668923D02*
D03*
X429400Y522500D02*
D03*
X295100Y669900D02*
D03*
X424500Y517000D02*
D03*
X313600Y674500D02*
D03*
X304500Y676500D02*
D03*
X259500Y667000D02*
D03*
X276900Y580400D02*
D03*
X328364Y682500D02*
D03*
X272500Y689600D02*
D03*
X270800Y581900D02*
D03*
X331100Y615300D02*
D03*
X234500Y524000D02*
D03*
X384579Y458650D02*
D03*
X243000Y524300D02*
D03*
X352500Y647500D02*
D03*
X300300Y665900D02*
D03*
X280500D02*
D03*
X280100Y599600D02*
D03*
X350300Y539200D02*
D03*
X305800Y662700D02*
D03*
X299100Y687600D02*
D03*
X285500Y612300D02*
D03*
X375100Y558100D02*
D03*
X437500Y459800D02*
D03*
X316000Y499000D02*
D03*
X329571Y654571D02*
D03*
X316100Y626600D02*
D03*
X324400Y598100D02*
D03*
X409900Y602547D02*
D03*
X359500Y536700D02*
D03*
X268693Y538300D02*
D03*
X389500Y591000D02*
D03*
X324700Y590800D02*
D03*
X307500Y633800D02*
D03*
X335701Y647101D02*
D03*
X476500Y652600D02*
D03*
X331500Y747700D02*
D03*
X341400Y690100D02*
D03*
X331500Y660500D02*
D03*
X459700Y606800D02*
D03*
X445300Y602200D02*
D03*
X323886Y604281D02*
D03*
X357017Y613800D02*
D03*
X449900D02*
D03*
X443900Y635500D02*
D03*
X492000Y605242D02*
D03*
X440100Y737500D02*
D03*
X419000Y765500D02*
D03*
X386500Y662000D02*
D03*
X376500Y646500D02*
D03*
X484300Y597100D02*
D03*
Y585100D02*
D03*
X446000Y656063D02*
D03*
X415500Y646000D02*
D03*
D64*
X372953Y531453D02*
D03*
Y519642D02*
D03*
M02*
