%FSLAX25Y25*%
%MOIN*%
G70*
G01*
G75*
G04 Layer_Physical_Order=1*
G04 Layer_Color=255*
%ADD10R,0.03150X0.06299*%
%ADD11O,0.12598X0.02362*%
%ADD12R,0.00945X0.11811*%
%ADD13R,0.11811X0.00945*%
%ADD14O,0.11811X0.00945*%
%ADD15R,0.03937X0.04331*%
%ADD16R,0.05906X0.05118*%
%ADD17R,0.05118X0.05906*%
%ADD18R,0.09449X0.07087*%
%ADD19R,0.07874X0.04724*%
%ADD20R,0.08268X0.02362*%
%ADD21R,0.17716X0.19685*%
%ADD22R,0.08661X0.11811*%
%ADD23R,0.11024X0.07874*%
%ADD24R,0.06299X0.03150*%
%ADD25R,0.11000X0.15000*%
%ADD26R,0.10984X0.11811*%
%ADD27R,0.06496X0.04724*%
%ADD28R,0.06496X0.04528*%
%ADD29R,0.06299X0.10630*%
%ADD30R,0.10236X0.09449*%
%ADD31R,0.06299X0.07087*%
%ADD32R,0.07087X0.06299*%
%ADD33R,0.08661X0.13386*%
%ADD34R,0.04528X0.06496*%
%ADD35R,0.04724X0.06496*%
%ADD36R,0.07874X0.01378*%
%ADD37O,0.07874X0.01378*%
%ADD38R,0.06500X0.11201*%
%ADD39R,0.09055X0.05906*%
%ADD40R,0.09055X0.05906*%
%ADD41R,0.09055X0.09055*%
%ADD42R,0.05512X0.14961*%
%ADD43R,0.07284X0.01575*%
%ADD44R,0.23622X0.23622*%
%ADD45O,0.00669X0.05709*%
%ADD46R,0.00669X0.05709*%
%ADD47C,0.02500*%
%ADD48C,0.01000*%
%ADD49C,0.00800*%
%ADD50C,0.00600*%
%ADD51C,0.00661*%
%ADD52C,0.00700*%
%ADD53C,0.02205*%
%ADD54C,0.01654*%
%ADD55C,0.00965*%
%ADD56C,0.01102*%
%ADD57C,0.00900*%
%ADD58C,0.05906*%
%ADD59R,0.05906X0.05906*%
%ADD60C,0.06000*%
%ADD61R,0.05906X0.05906*%
%ADD62C,0.15748*%
%ADD63C,0.05000*%
D10*
X450000Y390693D02*
D03*
Y377307D02*
D03*
X484500Y719307D02*
D03*
Y732693D02*
D03*
X440000Y386693D02*
D03*
Y373307D02*
D03*
X418000Y386693D02*
D03*
Y373307D02*
D03*
X430000Y390693D02*
D03*
Y377307D02*
D03*
X460000Y388693D02*
D03*
Y375307D02*
D03*
X470000Y377307D02*
D03*
Y390693D02*
D03*
X480000Y373307D02*
D03*
Y386693D02*
D03*
X492000Y379307D02*
D03*
Y392693D02*
D03*
D11*
X292472Y869106D02*
D03*
Y874106D02*
D03*
Y879106D02*
D03*
Y884106D02*
D03*
X270425Y869106D02*
D03*
Y874106D02*
D03*
Y879106D02*
D03*
Y884106D02*
D03*
X469024Y864500D02*
D03*
Y869500D02*
D03*
Y874500D02*
D03*
Y879500D02*
D03*
X446976Y864500D02*
D03*
Y869500D02*
D03*
Y874500D02*
D03*
Y879500D02*
D03*
D12*
X325858Y671858D02*
D03*
X327827D02*
D03*
X329795D02*
D03*
X331764D02*
D03*
X333732D02*
D03*
X335701D02*
D03*
X337669D02*
D03*
X339638D02*
D03*
X341606D02*
D03*
X343575D02*
D03*
X345543D02*
D03*
X347512D02*
D03*
X349480D02*
D03*
X351449D02*
D03*
X353417D02*
D03*
X355386D02*
D03*
Y624614D02*
D03*
X353417D02*
D03*
X351449D02*
D03*
X349480D02*
D03*
X347512D02*
D03*
X345543D02*
D03*
X343575D02*
D03*
X341606D02*
D03*
X339638D02*
D03*
X337669D02*
D03*
X335701D02*
D03*
X333732D02*
D03*
X331764D02*
D03*
X329795D02*
D03*
X327827D02*
D03*
X325858D02*
D03*
D13*
X364244Y663000D02*
D03*
Y661032D02*
D03*
Y659063D02*
D03*
Y657095D02*
D03*
Y655126D02*
D03*
Y653158D02*
D03*
Y651189D02*
D03*
Y649221D02*
D03*
Y647252D02*
D03*
Y645284D02*
D03*
Y643315D02*
D03*
Y641347D02*
D03*
Y639378D02*
D03*
Y637410D02*
D03*
Y635441D02*
D03*
Y633473D02*
D03*
X317000D02*
D03*
Y635441D02*
D03*
Y637410D02*
D03*
Y639378D02*
D03*
Y641347D02*
D03*
Y643315D02*
D03*
Y645284D02*
D03*
Y647252D02*
D03*
Y649221D02*
D03*
Y651189D02*
D03*
Y653158D02*
D03*
Y655126D02*
D03*
Y657095D02*
D03*
Y659063D02*
D03*
Y661032D02*
D03*
D14*
Y663000D02*
D03*
D15*
X362000Y817346D02*
D03*
Y810654D02*
D03*
D16*
X258000Y859740D02*
D03*
Y852260D02*
D03*
X342449Y869866D02*
D03*
Y877346D02*
D03*
X330449Y869866D02*
D03*
Y877346D02*
D03*
X256000Y877740D02*
D03*
Y870260D02*
D03*
X340000Y755740D02*
D03*
Y748260D02*
D03*
X318000Y803740D02*
D03*
Y796260D02*
D03*
X501500Y362240D02*
D03*
Y354760D02*
D03*
X289795Y565047D02*
D03*
Y572528D02*
D03*
X395748Y586807D02*
D03*
Y594287D02*
D03*
X295795Y581047D02*
D03*
Y588528D02*
D03*
X248000Y519740D02*
D03*
Y512260D02*
D03*
X307500Y877740D02*
D03*
Y870260D02*
D03*
X270000Y850260D02*
D03*
Y857740D02*
D03*
X494000Y852260D02*
D03*
Y859740D02*
D03*
X474000Y739740D02*
D03*
Y732260D02*
D03*
X482000Y850260D02*
D03*
Y857740D02*
D03*
X214000Y512260D02*
D03*
Y519740D02*
D03*
D17*
X347740Y858000D02*
D03*
X340260D02*
D03*
X323740Y772000D02*
D03*
X316260D02*
D03*
X341740Y780000D02*
D03*
X334260D02*
D03*
X270260Y786000D02*
D03*
X277740D02*
D03*
X302260D02*
D03*
X309740D02*
D03*
X261213Y549547D02*
D03*
X268693D02*
D03*
X410693Y545547D02*
D03*
X403213D02*
D03*
X321740Y862000D02*
D03*
X314260D02*
D03*
X287760Y898000D02*
D03*
X295240D02*
D03*
X493740Y842000D02*
D03*
X486260D02*
D03*
X411740Y770000D02*
D03*
X404260D02*
D03*
X453740Y902000D02*
D03*
X446260D02*
D03*
X384189Y831606D02*
D03*
X376709D02*
D03*
X252260Y786000D02*
D03*
X259740D02*
D03*
X403488Y602547D02*
D03*
X396008D02*
D03*
X230713Y449547D02*
D03*
X238193D02*
D03*
X230713Y461547D02*
D03*
X238193D02*
D03*
X230713Y471547D02*
D03*
X238193D02*
D03*
X230713Y481547D02*
D03*
X238193D02*
D03*
X266693Y561547D02*
D03*
X259213D02*
D03*
D18*
X265480Y678000D02*
D03*
D19*
X249732Y674063D02*
D03*
Y681937D02*
D03*
D20*
X313504Y568787D02*
D03*
X302087Y565047D02*
D03*
Y572528D02*
D03*
X417457Y590547D02*
D03*
X406039Y586807D02*
D03*
Y594287D02*
D03*
X224291Y516000D02*
D03*
X235709Y519740D02*
D03*
Y512260D02*
D03*
D21*
X385331Y892000D02*
D03*
X426669D02*
D03*
D22*
X360000Y733598D02*
D03*
Y758402D02*
D03*
D23*
X295343Y914000D02*
D03*
X275657D02*
D03*
D24*
X478693Y904000D02*
D03*
X465307D02*
D03*
X483807Y710000D02*
D03*
X497193D02*
D03*
D25*
X448049Y846000D02*
D03*
X419951D02*
D03*
D26*
X298000Y836433D02*
D03*
Y815567D02*
D03*
X368000Y798433D02*
D03*
Y777567D02*
D03*
X388000Y768433D02*
D03*
Y747567D02*
D03*
D27*
X214685Y530000D02*
D03*
D28*
X225118D02*
D03*
D29*
X303988Y932000D02*
D03*
X315012D02*
D03*
X460488Y846000D02*
D03*
X471512D02*
D03*
D30*
X412598Y788000D02*
D03*
X387402D02*
D03*
X340598Y818000D02*
D03*
X315402D02*
D03*
D31*
X479937Y889606D02*
D03*
X490961D02*
D03*
D32*
X301500Y640488D02*
D03*
Y651512D02*
D03*
X462000Y737512D02*
D03*
Y726488D02*
D03*
X257500Y888488D02*
D03*
Y899512D02*
D03*
D33*
X319500Y892583D02*
D03*
Y915417D02*
D03*
D34*
X270000Y809118D02*
D03*
X254000Y794882D02*
D03*
D35*
X270000Y798685D02*
D03*
X254000Y805315D02*
D03*
D36*
X330480Y801606D02*
D03*
D37*
Y799047D02*
D03*
Y796488D02*
D03*
Y793929D02*
D03*
Y791370D02*
D03*
Y788811D02*
D03*
X351740Y801606D02*
D03*
Y799047D02*
D03*
Y796488D02*
D03*
Y793929D02*
D03*
Y791370D02*
D03*
Y788811D02*
D03*
D38*
X341110Y795209D02*
D03*
D39*
X397500Y656000D02*
D03*
X379390D02*
D03*
D40*
Y636000D02*
D03*
D41*
X397500D02*
D03*
D42*
X467453Y515154D02*
D03*
X457453D02*
D03*
X447453D02*
D03*
X467453Y415547D02*
D03*
X457453D02*
D03*
X447453D02*
D03*
D43*
X401638Y554988D02*
D03*
Y560106D02*
D03*
X412268D02*
D03*
Y557547D02*
D03*
Y554988D02*
D03*
D44*
X384579Y380762D02*
D03*
Y473478D02*
D03*
X271480Y380762D02*
D03*
Y473478D02*
D03*
D45*
X301158Y514886D02*
D03*
X302732D02*
D03*
X304307D02*
D03*
X305882D02*
D03*
X307457D02*
D03*
X309032D02*
D03*
X310606D02*
D03*
X312181D02*
D03*
X313756D02*
D03*
X315331D02*
D03*
X316906D02*
D03*
X318480D02*
D03*
X320055D02*
D03*
X321630D02*
D03*
X323205D02*
D03*
X324780D02*
D03*
X326354D02*
D03*
X327929D02*
D03*
X329504D02*
D03*
X331079D02*
D03*
X332654D02*
D03*
X334228D02*
D03*
X335803D02*
D03*
X337378D02*
D03*
X338953D02*
D03*
X340528D02*
D03*
X342102D02*
D03*
X343677D02*
D03*
X345252D02*
D03*
X346827D02*
D03*
X348402D02*
D03*
X349976D02*
D03*
X351551D02*
D03*
X353126D02*
D03*
X354701D02*
D03*
X301158Y532307D02*
D03*
X302732D02*
D03*
X304307D02*
D03*
X305882D02*
D03*
X307457D02*
D03*
X309032D02*
D03*
X310606D02*
D03*
X312181D02*
D03*
X313756D02*
D03*
X315331D02*
D03*
X316906D02*
D03*
X318480D02*
D03*
X320055D02*
D03*
X321630D02*
D03*
X323205D02*
D03*
X324780D02*
D03*
X326354D02*
D03*
X327929D02*
D03*
X329504D02*
D03*
X331079D02*
D03*
X332654D02*
D03*
X334228D02*
D03*
X335803D02*
D03*
X337378D02*
D03*
X338953D02*
D03*
X340528D02*
D03*
X342102D02*
D03*
X343677D02*
D03*
X345252D02*
D03*
X346827D02*
D03*
X348402D02*
D03*
X349976D02*
D03*
X351551D02*
D03*
X353126D02*
D03*
D46*
X354701D02*
D03*
D47*
X474000Y561000D02*
X474500Y561500D01*
X474000Y552000D02*
Y561000D01*
X466000Y544000D02*
X474000Y552000D01*
X459275Y611625D02*
X466000Y604900D01*
X446000Y726824D02*
X450797Y731621D01*
X446000Y656063D02*
Y726824D01*
X401500Y554850D02*
X401638Y554988D01*
X401500Y551113D02*
Y554850D01*
Y551113D02*
X403213Y549400D01*
Y545547D02*
Y549400D01*
Y524413D02*
Y545547D01*
X391400Y512600D02*
X403213Y524413D01*
X306200Y498200D02*
X306986Y497414D01*
X306200Y498200D02*
Y501500D01*
X300353Y487539D02*
X306986Y494173D01*
X258000Y487539D02*
X300353D01*
X248000Y456300D02*
X255500Y463800D01*
X232000Y456300D02*
X248000D01*
X230713Y457587D02*
X232000Y456300D01*
X230713Y457587D02*
Y461547D01*
X305200Y502500D02*
X306200Y501500D01*
X306986Y494173D02*
Y497414D01*
X255500Y485039D02*
X258000Y487539D01*
X255500Y463800D02*
Y485039D01*
X230713Y449547D02*
Y457587D01*
X259213Y557587D02*
Y561547D01*
Y557587D02*
X262000Y554800D01*
X273600D01*
Y533000D02*
Y554800D01*
X257150Y516550D02*
X273600Y533000D01*
X257150Y509550D02*
Y516550D01*
X248766Y501166D02*
X257150Y509550D01*
X227722Y501166D02*
X248766D01*
X230713Y484600D02*
X237500Y491387D01*
X230713Y481547D02*
Y484600D01*
Y471547D02*
Y481547D01*
Y461547D02*
Y471547D01*
X360900Y897700D02*
X382100Y918900D01*
X360900Y858900D02*
Y897700D01*
X344000Y842000D02*
X360900Y858900D01*
X338000Y836000D02*
X344000Y842000D01*
X318433Y836000D02*
X338000D01*
X318000Y836433D02*
X318433Y836000D01*
X298000Y836433D02*
X318000D01*
X344312Y645500D02*
X345000D01*
X339638Y650174D02*
X344312Y645500D01*
X499900Y338260D02*
X506800Y345160D01*
Y360000D01*
X504560Y362240D02*
X506800Y360000D01*
X501500Y362240D02*
X504560D01*
X501500D02*
Y640250D01*
X461750Y680000D02*
X501500Y640250D01*
X458000Y680000D02*
X461750D01*
X458000D02*
Y711000D01*
X456200Y712800D02*
X458000Y711000D01*
X456200Y712800D02*
Y731000D01*
X457200Y732000D01*
X466800D01*
X467800Y733000D01*
Y737540D01*
X470000Y739740D01*
X474000D01*
X470800Y893600D02*
Y900000D01*
X460200Y883000D02*
X470800Y893600D01*
X490793Y732000D02*
X496500D01*
X490100Y732693D02*
X490793Y732000D01*
X484500Y732693D02*
X490100D01*
X482747D02*
X484500D01*
X475700Y739740D02*
X482747Y732693D01*
X474000Y739740D02*
X475700D01*
X446976Y864500D02*
Y869500D01*
X474000Y739740D02*
Y754700D01*
X475000Y755700D01*
X460488Y841412D02*
Y846000D01*
X475000Y755700D02*
Y826900D01*
X460488Y841412D02*
X475000Y826900D01*
X460488Y838688D02*
Y841412D01*
X458000Y836200D02*
X460488Y838688D01*
X440200Y836200D02*
X458000D01*
X433200Y843200D02*
X440200Y836200D01*
X433200Y843200D02*
Y867500D01*
X422700Y878000D02*
X433200Y867500D01*
X387331Y878000D02*
X422700D01*
X385331Y880000D02*
X387331Y878000D01*
X385331Y880000D02*
Y892000D01*
X460488Y846000D02*
Y854912D01*
X385331Y892000D02*
Y912656D01*
X386850Y914175D01*
Y921150D01*
X370000Y938000D02*
X386850Y921150D01*
X249732Y674063D02*
X256000D01*
X257200Y675263D01*
Y701200D01*
X262000Y706000D01*
X256000Y712000D02*
X262000Y706000D01*
X256000Y712000D02*
Y724000D01*
X319500Y915417D02*
Y921400D01*
X315012Y925888D02*
X319500Y921400D01*
X315012Y925888D02*
Y932000D01*
X353126Y532307D02*
X354701D01*
X353126Y514886D02*
X354701D01*
Y528852D01*
X365200Y535400D02*
Y539400D01*
X315012Y932000D02*
X326812Y943800D01*
X352100D01*
X357900Y938000D01*
X360000D01*
Y901800D02*
Y938000D01*
X350900Y892700D02*
X360000Y901800D01*
X349965Y858387D02*
X350900Y892700D01*
X225118Y530000D02*
X232750D01*
X479937Y889606D02*
X484100D01*
X482000Y909800D02*
X484100Y907700D01*
X408200Y909800D02*
X482000D01*
X380000Y938000D02*
X408200Y909800D01*
X262200Y892000D02*
X268000Y897800D01*
X257500Y888488D02*
Y892000D01*
X263866Y879106D02*
X270425D01*
X262500Y877740D02*
X263866Y879106D01*
X256000Y877740D02*
X262500D01*
X257500Y883800D02*
Y888488D01*
X256000Y882300D02*
X257500Y883800D01*
X256000Y877740D02*
Y882300D01*
X447453Y499500D02*
Y515154D01*
X457453Y415547D02*
Y430500D01*
X447453Y440500D02*
Y499500D01*
Y440500D02*
X457453Y430500D01*
X334228Y502672D02*
X337700Y499200D01*
X411000Y846000D02*
X419951D01*
X409000Y844000D02*
X411000Y846000D01*
X405500Y825600D02*
X409000Y844000D01*
X395791Y838809D02*
X405500Y825600D01*
X368809Y838809D02*
X395791D01*
X362000Y832000D02*
X368809Y838809D01*
X362000Y817346D02*
Y832000D01*
X351554Y817346D02*
X362000D01*
X350900Y818000D02*
X351554Y817346D01*
X340598Y818000D02*
X350900D01*
X340598Y806812D02*
Y818000D01*
Y806812D02*
X341110Y806300D01*
Y795209D02*
Y806300D01*
X340598Y818000D02*
Y824098D01*
X351874Y835374D01*
Y840000D01*
X341110Y788811D02*
Y795209D01*
X240000Y744000D02*
X244000Y748000D01*
X412598Y788000D02*
X458000D01*
Y757500D02*
X462000Y753500D01*
Y737512D02*
Y753500D01*
X409598Y788000D02*
X412598D01*
X268000Y772000D02*
X315500D01*
X244000Y748000D02*
X268000Y772000D01*
X244000Y748000D02*
Y824800D01*
X258000Y838800D01*
Y852260D01*
X450797Y731621D02*
X456688Y737512D01*
X301500Y651512D02*
X301740D01*
X301500Y647500D02*
Y651512D01*
X295707Y645207D02*
X298000Y647500D01*
X324780Y583082D02*
X331764Y590066D01*
X295707Y633293D02*
Y645207D01*
Y633293D02*
X304200Y624800D01*
Y596080D02*
Y624800D01*
Y596080D02*
X324780Y575500D01*
Y583082D01*
X447453Y415547D02*
Y424300D01*
X434300Y464667D02*
Y525200D01*
X384579Y473478D02*
X418700Y507599D01*
X432152Y462519D02*
X434300Y464667D01*
X424000Y531500D02*
X428000D01*
X384579Y473478D02*
Y492079D01*
X432152Y439601D02*
X447453Y424300D01*
X432152Y439601D02*
Y462519D01*
X428000Y531500D02*
X434300Y525200D01*
X418700Y526200D02*
X424000Y531500D01*
X395748Y586807D02*
X406039D01*
X324780Y523600D02*
X325580Y522800D01*
X333003D01*
X337300Y508703D02*
X372525Y473478D01*
X271480D02*
X372525D01*
X384579D01*
X271480Y380762D02*
Y473478D01*
X238400Y519740D02*
X248000D01*
X289795Y565047D02*
X302087D01*
X384579Y380762D02*
Y458650D01*
Y473478D01*
X273953Y565047D02*
X289795D01*
X271000Y568000D02*
X273953Y565047D01*
X256200Y568000D02*
X271000D01*
X248000Y559800D02*
X256200Y568000D01*
X248000Y519740D02*
Y559800D01*
X246000Y524300D02*
X248000Y519740D01*
X243000Y524300D02*
X246000D01*
X332000Y904200D02*
X350000Y922200D01*
X326100Y904200D02*
X332000D01*
X330449Y877346D02*
Y899851D01*
X350000Y922200D02*
Y938000D01*
X303988Y908212D02*
X308000Y904200D01*
X303988Y908212D02*
Y932000D01*
X330449Y877346D02*
X342449D01*
X319094D02*
X330449D01*
X318700Y877740D02*
X319094Y877346D01*
X307500Y877740D02*
X318700D01*
X406126Y807874D02*
Y812000D01*
Y807874D02*
X409500Y804500D01*
Y782457D02*
X412598Y779358D01*
X411740Y778500D02*
X412598Y779358D01*
X411740Y770000D02*
Y778500D01*
X300666Y877740D02*
X307500D01*
X299300Y879106D02*
X300666Y877740D01*
X292472Y879106D02*
X299300D01*
X279400Y853060D02*
Y874506D01*
X276600Y850260D02*
X279400Y853060D01*
X270000Y850260D02*
X276600D01*
X263500Y914000D02*
X275657D01*
X257500Y908000D02*
X263500Y914000D01*
X257500Y899512D02*
Y908000D01*
X253000Y899512D02*
X257500D01*
X250700Y897212D02*
X253000Y899512D01*
X250700Y855560D02*
Y897212D01*
Y855560D02*
X254000Y852260D01*
X258000D01*
X411740Y752000D02*
Y770000D01*
X407307Y747567D02*
X411740Y752000D01*
X388000Y747567D02*
X407307D01*
X265000Y850260D02*
X270000D01*
X263000Y852260D02*
X265000Y850260D01*
X258000Y852260D02*
X263000D01*
X388000Y720000D02*
Y747567D01*
Y720000D02*
X402000Y706000D01*
X249732Y681937D02*
Y692800D01*
X252000Y695068D01*
Y706000D01*
X240000Y718000D02*
Y744000D01*
Y718000D02*
X252000Y706000D01*
X471512Y846000D02*
X474900D01*
X477800Y843100D01*
Y840000D02*
Y843100D01*
Y840000D02*
X481800Y836000D01*
X491740D01*
X493740Y838000D01*
Y842000D01*
Y847000D01*
X494000Y847260D01*
Y852260D01*
X491411Y880450D02*
X499300Y872561D01*
Y853560D02*
Y872561D01*
X494000Y852260D02*
X498000D01*
X499300Y853560D01*
X490961Y880900D02*
Y889606D01*
X499300D01*
X501800Y887106D01*
Y747300D02*
Y887106D01*
X496500Y742000D02*
X501800Y747300D01*
X395748Y586807D02*
Y589600D01*
X389500Y591000D02*
X390900Y589600D01*
X459275Y607225D02*
X459700Y606800D01*
X452844Y618350D02*
X459275Y611919D01*
X445300Y602200D02*
Y616000D01*
X447650Y618350D01*
X466000Y594000D02*
Y604900D01*
X460800Y594000D02*
X466000D01*
X460800D02*
Y605700D01*
X459700Y606800D02*
X460800Y605700D01*
X484300Y585100D02*
Y597100D01*
X456688Y737512D02*
X462000D01*
X405500Y656000D02*
X415500Y646000D01*
X397500Y656000D02*
X405500D01*
X459275Y607225D02*
Y611625D01*
Y611919D01*
X447650Y618350D02*
X452550D01*
X452844D01*
X452550D02*
X459275Y611625D01*
X348500Y857000D02*
X348599Y857094D01*
X349965Y858387D01*
X257500Y892000D02*
X262200D01*
X484100Y889606D02*
Y907700D01*
X298000Y647500D02*
X301500D01*
X331100Y615300D02*
X331764D01*
X308000Y904200D02*
X326100D01*
X332000D01*
X326100D02*
X330449Y899851D01*
X390900Y589600D02*
X395748D01*
X384579Y492079D02*
X418700Y526200D01*
X424000Y531500D01*
X409500Y782457D02*
Y788000D01*
Y804500D01*
X405500Y812000D02*
Y825600D01*
X450797Y731621D02*
X456688Y737512D01*
X458000Y757500D02*
Y759500D01*
Y779500D01*
Y788000D01*
X485461Y874500D02*
X491411Y880450D01*
X490961Y889606D02*
X491411Y880450D01*
X499300Y872561D01*
X490961Y880900D02*
X491411Y880450D01*
D48*
X476500Y652600D02*
X479500Y649600D01*
Y406700D02*
Y649600D01*
X470100Y397300D02*
X479500Y406700D01*
X460000Y397300D02*
X470100D01*
X455700Y393000D02*
X460000Y397300D01*
X455700Y362395D02*
Y393000D01*
Y362395D02*
X459394Y358701D01*
X375000Y691000D02*
X375200D01*
X376200Y690000D01*
X305900Y640488D02*
X310695Y645284D01*
X301500Y640488D02*
X305900D01*
X356000Y527553D02*
X365200Y535400D01*
X354701Y528852D02*
Y532307D01*
Y528852D02*
X356000Y527553D01*
X464600Y462000D02*
X466500D01*
X463200Y463400D02*
X464600Y462000D01*
X463200Y463400D02*
Y500353D01*
X457453Y506100D02*
X463200Y500353D01*
X457453Y506100D02*
Y515154D01*
X335803Y558303D02*
X385800Y608300D01*
X427800D01*
X457453Y578647D01*
Y515154D02*
Y578647D01*
X467453Y415547D02*
Y434300D01*
X459200Y442553D02*
X467453Y434300D01*
X459200Y442553D02*
Y475700D01*
X457400Y477500D02*
X459200Y475700D01*
X456500Y477500D02*
X457400D01*
X330500Y497796D02*
Y508046D01*
Y497796D02*
X335396Y492900D01*
X345908Y545400D02*
X366000D01*
X369200Y542200D01*
Y518000D02*
Y542200D01*
X358500Y507300D02*
X369200Y518000D01*
X467453Y504800D02*
Y515154D01*
X500840Y354760D02*
X501500D01*
X495100Y360500D02*
X500840Y354760D01*
X495100Y360500D02*
Y383900D01*
X492000Y387000D02*
X495100Y383900D01*
X492000Y387000D02*
Y392693D01*
X486000D02*
X492000D01*
X480000Y386693D02*
X486000Y392693D01*
X474000Y386693D02*
X480000D01*
X470000Y390693D02*
X474000Y386693D01*
X462000Y390693D02*
X470000D01*
X460000Y388693D02*
X462000Y390693D01*
X375000Y770100D02*
Y788000D01*
X354100Y750900D02*
X360000Y745000D01*
Y733598D02*
Y744260D01*
X361000Y791000D02*
Y792200D01*
Y791000D02*
X372000D01*
X375000Y788000D01*
X356200Y770100D02*
X375000D01*
X354100Y768000D02*
X356200Y770100D01*
X354100Y750900D02*
Y768000D01*
X360000Y744260D02*
Y745000D01*
X356000Y748260D02*
X360000Y744260D01*
X340000Y748260D02*
X356000D01*
X276500Y655800D02*
Y712000D01*
X272100Y716400D02*
X276500Y712000D01*
X263600Y716400D02*
X272100D01*
X260500Y719500D02*
X263600Y716400D01*
X260500Y719500D02*
Y733500D01*
X250000Y744000D02*
X260500Y733500D01*
X284100Y641733D02*
X284500Y642133D01*
Y691000D01*
X296453Y702953D01*
Y721247D01*
X274500Y743200D02*
X296453Y721247D01*
X274500Y743200D02*
Y746000D01*
X272000Y748500D02*
X274500Y746000D01*
X264500Y748500D02*
X272000D01*
X260000Y744000D02*
X264500Y748500D01*
X347754Y810654D02*
X362000D01*
X346300Y809200D02*
X347754Y810654D01*
X265047Y874106D02*
X270425D01*
X261200Y870260D02*
X265047Y874106D01*
X256000Y870260D02*
X261200D01*
X258000Y859740D02*
Y864000D01*
X256000Y866000D02*
X258000Y864000D01*
X256000Y866000D02*
Y870260D01*
X342449Y864189D02*
Y869866D01*
X299200Y856000D02*
X299700Y855500D01*
X299200Y856000D02*
Y862379D01*
X292472Y869106D02*
X299200Y862379D01*
X331217Y784500D02*
X341389D01*
X323740Y777023D02*
X324017Y777300D01*
X323740Y774000D02*
Y777023D01*
Y772000D02*
Y772260D01*
X326200Y779483D02*
X331217Y784500D01*
X326200Y779467D02*
Y779483D01*
X324033Y777300D02*
X326200Y779467D01*
X324017Y777300D02*
X324033D01*
X326000Y774000D02*
X332000Y780000D01*
X334260D01*
X331400Y808500D02*
X335900Y804000D01*
X331400Y808500D02*
Y820000D01*
X327100Y824300D02*
X331400Y820000D01*
X258400Y824300D02*
X327100D01*
X248100Y814000D02*
X258400Y824300D01*
X248100Y787000D02*
Y814000D01*
Y787000D02*
X249100Y786000D01*
X252260D01*
X317800Y780300D02*
X318000Y780500D01*
X280000Y780300D02*
X317800D01*
X277740Y782560D02*
X280000Y780300D01*
X277740Y782560D02*
Y786000D01*
X318000Y796260D02*
X321700D01*
X313640D02*
X318000D01*
X312200Y797700D02*
X313640Y796260D01*
X302200Y786000D02*
X302260D01*
X397500Y636000D02*
X399500Y634000D01*
X404900D01*
X296000Y558747D02*
X301158Y553590D01*
X272800Y558747D02*
X296000D01*
X270000Y561547D02*
X272800Y558747D01*
X266693Y561547D02*
X270000D01*
X286707Y490300D02*
X304307Y507900D01*
X253900Y490300D02*
X286707D01*
X252700Y489100D02*
X253900Y490300D01*
X252700Y467447D02*
Y489100D01*
X246800Y461547D02*
X252700Y467447D01*
X238193Y461547D02*
X246800D01*
X275264Y496564D02*
X297700Y519000D01*
X232464Y496564D02*
X275264D01*
X226600Y490700D02*
X232464Y496564D01*
X226600Y446000D02*
Y490700D01*
Y446000D02*
X227600Y445000D01*
X237193D01*
X238193Y446000D01*
Y449547D01*
X305882Y542982D02*
X306700Y543800D01*
X322900Y507400D02*
X323000Y507500D01*
X322900Y498295D02*
Y507400D01*
X318605Y494000D02*
X322900Y498295D01*
X314693Y494000D02*
X318605D01*
X308993Y499700D02*
X314693Y494000D01*
X412268Y550975D02*
Y554988D01*
X410693Y549400D02*
X412268Y550975D01*
X410693Y545547D02*
Y549400D01*
X295795Y579700D02*
Y581047D01*
X289795Y573700D02*
X295795Y579700D01*
X289795Y572528D02*
Y573700D01*
Y572528D02*
X302087D01*
X396008Y598460D02*
Y602547D01*
X395748Y598200D02*
X396008Y598460D01*
X395748Y594287D02*
Y598200D01*
Y594287D02*
X406039D01*
X220940Y516000D02*
X224291D01*
X217200Y512260D02*
X220940Y516000D01*
X214000Y512260D02*
X217200D01*
X261213Y528313D02*
Y549547D01*
X254400Y521500D02*
X261213Y528313D01*
X254400Y514660D02*
Y521500D01*
X252000Y512260D02*
X254400Y514660D01*
X248000Y512260D02*
X252000D01*
X235709D02*
X248000D01*
X272000Y700601D02*
Y706000D01*
X265480Y694081D02*
X272000Y700601D01*
X265480Y678000D02*
Y694081D01*
X259740Y786000D02*
Y798000D01*
X256240Y801500D02*
X259740Y798000D01*
X254000Y801500D02*
X256240D01*
X254000D02*
Y805315D01*
X270000Y792460D02*
Y798685D01*
Y792460D02*
X270260Y792200D01*
Y786000D02*
Y792200D01*
X418000Y366694D02*
Y373307D01*
Y366694D02*
X419394Y365300D01*
Y358701D02*
Y365300D01*
X430000Y368306D02*
Y377307D01*
X429394Y367700D02*
X430000Y368306D01*
X429394Y358701D02*
Y367700D01*
X440000Y366306D02*
Y373307D01*
X439394Y365700D02*
X440000Y366306D01*
X439394Y358701D02*
Y365700D01*
X450000Y368306D02*
Y377307D01*
X449394Y367700D02*
X450000Y368306D01*
X449394Y358701D02*
Y367700D01*
X214685Y525185D02*
Y530000D01*
X214000Y524500D02*
X214685Y525185D01*
X214000Y519740D02*
Y524500D01*
X270425Y863625D02*
Y869106D01*
X270000Y863200D02*
X270425Y863625D01*
X270000Y857740D02*
Y863200D01*
X301847Y870260D02*
X307500D01*
X298000Y874106D02*
X301847Y870260D01*
X292472Y874106D02*
X298000D01*
X307500Y862500D02*
Y870260D01*
Y862500D02*
X309000Y861000D01*
X323240Y860300D02*
Y861740D01*
X330449Y868949D01*
Y869866D01*
X310017Y892583D02*
X319500D01*
X304600Y898000D02*
X310017Y892583D01*
X295240Y898000D02*
X304600D01*
X295343Y906002D02*
Y914000D01*
X295240Y905900D02*
X295343Y906002D01*
X295240Y898000D02*
Y905900D01*
Y886874D02*
Y898000D01*
X292472Y884106D02*
X295240Y886874D01*
X287760Y893866D02*
Y898000D01*
X278000Y884106D02*
X287760Y893866D01*
X270425Y884106D02*
X278000D01*
X486260Y842000D02*
Y844000D01*
X482000Y848260D02*
X486260Y844000D01*
X482000Y848260D02*
Y850260D01*
X489000Y859740D02*
X494000D01*
X487000Y857740D02*
X489000Y859740D01*
X482000Y857740D02*
X487000D01*
X482000D02*
Y862500D01*
X480000Y864500D02*
X482000Y862500D01*
X469024Y864500D02*
X480000D01*
X426669Y892000D02*
Y902000D01*
X446260Y891017D02*
Y902000D01*
Y891017D02*
X446976Y890300D01*
Y879500D02*
Y890300D01*
X448049Y846000D02*
Y846400D01*
X439100Y849300D02*
X442000Y846400D01*
X439100Y849300D02*
Y878000D01*
X440600Y879500D01*
X446976D01*
X460500Y904000D02*
X465307D01*
X458500Y902000D02*
X460500Y904000D01*
X453740Y902000D02*
X458500D01*
X453740Y896260D02*
Y902000D01*
Y896260D02*
X455400Y894600D01*
Y875900D02*
Y894600D01*
X454000Y874500D02*
X455400Y875900D01*
X446976Y874500D02*
X454000D01*
X360000Y758402D02*
X368900D01*
X378931Y768433D01*
X388000D01*
Y774500D01*
X380700Y781800D02*
X388000Y774500D01*
X380700Y781800D02*
Y794300D01*
X388300Y801900D01*
Y836059D01*
X377768D02*
X388300D01*
X376709Y835000D02*
X377768Y836059D01*
X376709Y831606D02*
Y835000D01*
Y812000D02*
Y831606D01*
X370609Y805900D02*
X376709Y812000D01*
X384189Y802622D02*
Y831606D01*
X380000Y798433D02*
X384189Y802622D01*
X368000Y798433D02*
X380000D01*
X360114D02*
X368000D01*
X359500Y799047D02*
X360114Y798433D01*
X351740Y799047D02*
X359500D01*
X324000Y795500D02*
X324988Y796488D01*
X324000Y794000D02*
Y795500D01*
X322200Y792200D02*
X324000Y794000D01*
X320174Y792200D02*
X322200D01*
X319973Y792401D02*
X320174Y792200D01*
X315027Y792401D02*
X319973D01*
X314826Y792200D02*
X315027Y792401D01*
X309681Y792200D02*
X314826D01*
X308200Y793681D02*
X309681Y792200D01*
X308200Y793681D02*
Y800000D01*
X311940Y803740D01*
X318000D01*
X324000Y818000D02*
X329000Y813000D01*
X315402Y818000D02*
X324000D01*
X318000Y803740D02*
Y808302D01*
X315402Y810900D02*
X318000Y808302D01*
X315402Y810900D02*
Y818000D01*
X307833D02*
X315402D01*
X305400Y815567D02*
X307833Y818000D01*
X298000Y815567D02*
X305400D01*
X276449D02*
X298000D01*
X270000Y809118D02*
X276449Y815567D01*
X270000Y809118D02*
Y811100D01*
X250100Y810000D02*
X251200Y811100D01*
X250100Y799000D02*
Y810000D01*
Y799000D02*
X251300Y797800D01*
X254000Y794882D02*
Y797800D01*
X485300Y745100D02*
X493900Y736500D01*
X498500D01*
X498000Y727000D02*
X501000Y730000D01*
X484500Y722100D02*
Y724000D01*
Y719307D02*
Y722100D01*
X498500Y736500D02*
X501000Y734000D01*
Y730000D02*
Y734000D01*
X487500Y727000D02*
X498000D01*
X484500Y724000D02*
X487500Y727000D01*
X474000Y728000D02*
X479900Y722100D01*
X474000Y728000D02*
Y732260D01*
X483807Y710000D02*
Y714300D01*
X484500Y714993D01*
Y719307D01*
X470872Y732260D02*
X474000D01*
X468521Y726488D02*
X470872Y728839D01*
X462000Y726488D02*
X468521D01*
X269100Y500800D02*
X289300Y521000D01*
X309200D01*
X261900Y514000D02*
X272600Y524700D01*
X310197D01*
X312181Y522716D01*
X312700Y508100D02*
X313756Y509156D01*
X341740Y780000D02*
X353200D01*
X357200Y784000D01*
X353200Y780000D02*
X353600D01*
X356033Y777567D01*
X368000D01*
X404260Y770000D02*
Y773640D01*
X402000Y775900D02*
X404260Y773640D01*
X387402Y781400D02*
X392902Y775900D01*
X387402Y781400D02*
Y788000D01*
X395000Y775900D02*
X402000D01*
X389000Y755000D02*
X395000Y761000D01*
X381000Y755000D02*
X389000D01*
X381000Y735500D02*
Y755000D01*
X371600Y726100D02*
X381000Y735500D01*
X340000Y726100D02*
X371600D01*
X335500Y730600D02*
X340000Y726100D01*
X335500Y730600D02*
Y754240D01*
X337000Y755740D01*
X340000D01*
X387402Y788000D02*
X392700D01*
Y814400D02*
X393100Y814800D01*
Y817900D01*
X393000Y818000D02*
X393100Y817900D01*
X341740Y768740D02*
Y780000D01*
X340000Y767000D02*
X341740Y768740D01*
X340000Y755740D02*
Y767000D01*
X497193Y710000D02*
Y715600D01*
X496500Y716293D02*
X497193Y715600D01*
X496500Y716293D02*
Y722000D01*
X364200Y686400D02*
X378300Y700500D01*
X404000D01*
X406500Y703000D01*
Y708500D01*
X403000Y712000D02*
X406500Y708500D01*
X403000Y712000D02*
Y715000D01*
X376200Y684100D02*
Y690000D01*
X378359Y706000D02*
X382000D01*
X353417Y687417D02*
X372000Y706000D01*
X351449Y695449D02*
X362000Y706000D01*
X349480Y703480D02*
X352000Y706000D01*
X342000D02*
X347512Y700488D01*
X332000Y706000D02*
X345543Y692457D01*
X322000Y702311D02*
X343575Y680736D01*
X322000Y702311D02*
Y706000D01*
X337669Y671858D02*
Y683757D01*
X315426Y706000D02*
X337669Y683757D01*
X312000Y706000D02*
X315426D01*
X450000Y390693D02*
Y398500D01*
X451800Y400300D01*
Y431600D01*
X441500Y441900D02*
X451800Y431600D01*
X441500Y441900D02*
Y545000D01*
X417900Y568600D02*
X441500Y545000D01*
X440000Y386693D02*
Y399000D01*
X429400Y409600D02*
X440000Y399000D01*
X429400Y409600D02*
Y522500D01*
X295100Y669900D02*
Y673800D01*
X303631Y682331D01*
X322227D01*
X430000Y390693D02*
Y405400D01*
X425400Y410000D02*
X430000Y405400D01*
X425400Y410000D02*
Y516200D01*
X424600Y517000D02*
X425400Y516200D01*
X424500Y517000D02*
X424600D01*
X259500Y665100D02*
Y667000D01*
X209500Y615100D02*
X259500Y665100D01*
X209500Y445400D02*
Y615100D01*
Y445400D02*
X211900Y443000D01*
X232500D01*
X253300Y422200D01*
Y372000D02*
Y422200D01*
Y372000D02*
X257900Y367400D01*
X404000D01*
X418000Y381400D01*
Y386693D01*
X492000Y370306D02*
Y379307D01*
X489394Y367700D02*
X492000Y370306D01*
X489394Y358701D02*
Y367700D01*
X330632Y687000D02*
X333732Y683900D01*
X304200Y687000D02*
X330632D01*
X290351Y673151D02*
X304200Y687000D01*
X290351Y593851D02*
Y673151D01*
X276900Y580400D02*
X290351Y593851D01*
X480000Y366306D02*
Y373307D01*
X479394Y365700D02*
X480000Y366306D01*
X479394Y358701D02*
Y365700D01*
X328364Y682500D02*
X331764Y679100D01*
X272500Y583600D02*
Y689600D01*
X270800Y581900D02*
X272500Y583600D01*
X470000Y368306D02*
Y377307D01*
X469394Y367700D02*
X470000Y368306D01*
X469394Y358701D02*
Y367700D01*
X460000Y367306D02*
Y375307D01*
X459394Y366700D02*
X460000Y367306D01*
X459394Y358701D02*
Y366700D01*
X280500Y665900D02*
Y697900D01*
X286500Y703900D01*
Y727500D01*
X270000Y744000D02*
X286500Y727500D01*
X300300Y661838D02*
X304000Y658138D01*
X300300Y661838D02*
Y665900D01*
X280500Y646700D02*
Y665900D01*
X280100Y646300D02*
X280500Y646700D01*
X280100Y599600D02*
Y646300D01*
X348700Y539200D02*
X350300D01*
X346827Y537327D02*
X348700Y539200D01*
X306500Y695000D02*
Y717500D01*
X280000Y744000D02*
X306500Y717500D01*
X299100Y687600D02*
X306500Y695000D01*
Y692200D02*
Y695000D01*
X288300Y615100D02*
Y674000D01*
X285500Y612300D02*
X288300Y615100D01*
X375100Y558100D02*
X375400Y557800D01*
X403100D01*
X403353Y557547D01*
X412268D01*
X398800Y560106D02*
X401638Y560106D01*
X389406Y569500D02*
X398800Y560106D01*
X376000Y569500D02*
X389406D01*
X371100Y564600D02*
X376000Y569500D01*
X371100Y550900D02*
Y564600D01*
Y550900D02*
X372000Y550000D01*
Y507300D02*
Y550000D01*
X368000Y503300D02*
X372000Y507300D01*
X349952Y503300D02*
X368000D01*
X345252Y508000D02*
X349952Y503300D01*
X313504Y568787D02*
X313600D01*
X310606Y539794D02*
X313600Y542788D01*
X292450Y652050D02*
X296400Y656000D01*
X292450Y608950D02*
Y652050D01*
Y608950D02*
X295795Y605605D01*
Y588528D02*
Y605605D01*
X413900Y590547D02*
X417457D01*
X413900Y564700D02*
X416000Y562600D01*
X421000D01*
X437500Y546100D01*
Y459800D02*
Y546100D01*
X316100Y605000D02*
Y626600D01*
Y605000D02*
X323000Y598100D01*
X324400D01*
X403488Y602547D02*
X409900D01*
X340528Y536828D02*
X346900Y543200D01*
X353000D01*
X359500Y536700D01*
X268693Y538300D02*
Y549547D01*
X307500Y608000D02*
X324700Y590800D01*
X307500Y608000D02*
Y633800D01*
X335701Y647101D02*
Y671858D01*
X327500Y743700D02*
X331500Y747700D01*
X327500Y704000D02*
Y743700D01*
Y704000D02*
X341400Y690100D01*
X329795Y662205D02*
X331500Y660500D01*
X329795Y662205D02*
Y671858D01*
X317000Y651189D02*
X327578D01*
X330400Y648367D01*
Y638314D02*
Y648367D01*
X323886Y631800D02*
X330400Y638314D01*
X323886Y604281D02*
Y631800D01*
X466000Y574000D02*
X470300Y578300D01*
Y604500D01*
X453900Y620900D02*
X470300Y604500D01*
X420600Y620900D02*
X453900D01*
X417300Y624200D02*
X420600Y620900D01*
X353417Y617400D02*
X357017Y613800D01*
X449900Y596100D02*
Y613800D01*
Y596100D02*
X459947Y586053D01*
Y567650D02*
Y586053D01*
Y567650D02*
X460800Y566797D01*
X463203D01*
X466000Y564000D01*
X351449Y624614D02*
Y631900D01*
X357200D01*
X361800Y627300D01*
X437300D01*
X438200Y626400D01*
X459500D01*
X472100Y613800D01*
Y571400D02*
Y613800D01*
X470400Y569700D02*
X472100Y571400D01*
X464000Y569700D02*
X470400D01*
X461747Y571953D02*
X464000Y569700D01*
X461747Y571953D02*
Y577447D01*
X462600Y578300D01*
Y584000D02*
X466000D01*
X364244Y657095D02*
X372000D01*
X373200Y658295D01*
Y660000D01*
X379200Y666000D01*
X411800D01*
X442300Y635500D01*
X443900D01*
X492000Y392693D02*
Y605242D01*
X440100Y648000D02*
Y737500D01*
Y648000D02*
X445919Y642181D01*
X449500D01*
X449800Y641881D01*
Y630400D02*
Y641881D01*
X448927Y629527D02*
X449800Y630400D01*
X373773Y629527D02*
X448927D01*
X371669Y631631D02*
X373773Y629527D01*
X371669Y631631D02*
Y641277D01*
X371600Y641347D02*
X371669Y641277D01*
X364244Y641347D02*
X371600D01*
X419000Y664500D02*
Y765500D01*
Y664500D02*
X444200Y639300D01*
X446800D01*
X447700Y638400D01*
Y633600D02*
Y638400D01*
X445600Y631500D02*
X447700Y633600D01*
X414000Y631500D02*
X445600D01*
X394311Y651189D02*
X414000Y631500D01*
X364244Y651189D02*
X394311D01*
X379390Y656000D02*
X384500D01*
X386500Y658000D01*
Y662000D01*
X375284Y645284D02*
X376500Y646500D01*
X364244Y645284D02*
X375284D01*
X306986Y497414D02*
Y502500D01*
Y509512D01*
X462600Y578300D02*
Y584000D01*
X355386Y624200D02*
X366800D01*
X355386D02*
X366800D01*
X417300D01*
X366800D02*
X372500Y618500D01*
X299700Y855500D02*
X340260D01*
X341949D01*
X339760Y856000D02*
Y858000D01*
Y861500D01*
X341949Y855500D02*
X342354Y855906D01*
X342449Y856000D01*
Y858000D01*
Y864189D01*
Y869866D01*
X339760Y861500D02*
X342449Y864189D01*
X323740Y774000D02*
X325500D01*
X323740Y772260D02*
X323760D01*
X325500Y774000D01*
X323740D02*
X325500D01*
X326000D01*
X302200Y786000D02*
Y805000D01*
X309000Y861000D02*
X314260D01*
X315760D01*
X426669Y902000D02*
X446260D01*
X442000Y846400D02*
X448049D01*
X251300Y797800D02*
X254000D01*
X251200Y811100D02*
X270000D01*
X470872Y728839D02*
Y732260D01*
X479900Y722100D02*
X484500D01*
X439000Y759500D02*
Y779500D01*
X395000Y761000D02*
Y775900D01*
X392902D02*
X395000D01*
X402000D01*
X392700Y788000D02*
Y814400D01*
X312600Y663000D02*
X312649Y663463D01*
X313600Y672400D01*
X288300Y674000D02*
X300500Y686200D01*
X306500Y692200D01*
X313600Y542788D02*
Y568787D01*
X413900Y564700D02*
Y590547D01*
X297122Y512030D02*
X301090D01*
X279656Y494564D02*
X297122Y512030D01*
X238193Y481547D02*
Y485746D01*
X247010Y494564D01*
X279656D01*
X250669Y490000D02*
X253210Y492541D01*
X250669Y479369D02*
Y490000D01*
X242847Y471547D02*
X250669Y479369D01*
X238193Y471547D02*
X242847D01*
X253210Y492541D02*
X284273D01*
D49*
X306986Y509512D02*
X307457Y509983D01*
X310695Y645284D02*
X317000D01*
X309700Y661032D02*
X317000D01*
X309700D02*
Y671300D01*
X304500Y676500D02*
X309700Y671300D01*
X306000Y647252D02*
X317000D01*
X301740Y651512D02*
X306000Y647252D01*
X331764Y617300D02*
Y624614D01*
Y617300D02*
X341606D01*
Y624614D01*
X345803Y528000D02*
X347402D01*
X348402Y529000D01*
X333003Y522800D02*
X335803Y520000D01*
Y510200D02*
X337300Y508703D01*
X308062Y655400D02*
Y657708D01*
X307632Y658138D02*
X308062Y657708D01*
X308336Y655126D02*
X317000D01*
X308062Y655400D02*
X308336Y655126D01*
X304000Y658138D02*
X307632D01*
X308000Y660370D02*
Y660500D01*
X309723Y657095D02*
X317000D01*
X309723D02*
Y658647D01*
X308000Y660370D02*
X309723Y658647D01*
X305800Y662700D02*
X308000Y660500D01*
X306400Y653158D02*
X317000D01*
X306400D02*
Y656000D01*
X296400D02*
X306400D01*
X331764Y590066D02*
Y615300D01*
Y617300D01*
Y590066D02*
Y615300D01*
D50*
X307457Y509983D02*
Y514886D01*
X351551Y532300D02*
Y532307D01*
X353126Y532300D02*
Y532307D01*
X351551Y514800D02*
Y514886D01*
X353126Y514800D02*
Y514886D01*
X334228Y502672D02*
Y514886D01*
X335803Y532307D02*
Y558303D01*
X332654Y510200D02*
Y514886D01*
X330500Y508046D02*
X332654Y510200D01*
X337378Y536870D02*
X345908Y545400D01*
X337378Y532307D02*
Y536870D01*
X301158Y532307D02*
Y553590D01*
X305882Y514886D02*
Y518000D01*
X304882Y519000D02*
X305882Y518000D01*
X297700Y519000D02*
X304882D01*
X305882Y532307D02*
Y542982D01*
X308993Y499700D02*
Y509807D01*
X309032Y509845D01*
Y514886D01*
X309200Y521000D02*
X310606Y519594D01*
Y514886D02*
Y519594D01*
X312181Y514886D02*
Y522716D01*
X313756Y509156D02*
Y514886D01*
X324780Y532307D02*
Y575500D01*
X349976Y514800D02*
Y514886D01*
X348402Y514800D02*
Y514886D01*
X349976Y532300D02*
Y532307D01*
X335803Y514886D02*
Y518000D01*
Y520000D01*
Y518000D02*
X345803Y528000D01*
X348402Y529000D02*
Y532300D01*
Y532307D01*
X324780Y523600D02*
Y532307D01*
X348402Y514886D02*
Y529000D01*
X335803Y510200D02*
Y514886D01*
X346827Y532307D02*
Y537327D01*
X345252Y508000D02*
Y514886D01*
X310606Y532307D02*
Y539794D01*
X316000Y499000D02*
X316445Y499445D01*
Y509843D01*
X315331Y510957D02*
X316445Y509843D01*
X315331Y510957D02*
Y514886D01*
X340528Y532307D02*
Y536828D01*
X351551Y514800D02*
X353126D01*
X351551Y532300D02*
X353126D01*
X348402Y514800D02*
X349976D01*
X348402Y532300D02*
X349976D01*
X301158Y512030D02*
Y514886D01*
X304307Y507900D02*
Y514886D01*
X302732Y511000D02*
Y514886D01*
D51*
X339638Y650174D02*
Y671858D01*
X343575Y632000D02*
X354890Y643315D01*
X327827Y624614D02*
X329795D01*
X355386Y624200D02*
Y624614D01*
X353417Y617400D02*
Y624614D01*
X364244Y663000D02*
X368300D01*
X313600Y672400D02*
Y674500D01*
X312600Y663000D02*
X317000D01*
X356300Y649221D02*
X364244D01*
X352500Y647500D02*
Y648421D01*
X317000Y659063D02*
X326400D01*
X357017Y613800D02*
X358217Y612600D01*
X353417Y617400D02*
X357017Y613800D01*
D52*
X339638Y643311D02*
Y650174D01*
X327827Y631500D02*
X339638Y643311D01*
X327827Y624614D02*
Y631500D01*
X374700Y636000D02*
X379390D01*
X372385Y643315D02*
X374700Y641000D01*
X364244Y643315D02*
X372385D01*
X354890D02*
X364244D01*
X343575Y624614D02*
Y632000D01*
X343180Y632395D02*
X343575Y632000D01*
X331000Y632395D02*
X343180D01*
X329795Y631190D02*
X331000Y632395D01*
X329795Y624614D02*
Y631190D01*
X354700Y657500D02*
X357074Y655126D01*
X364244D01*
X371500Y670300D02*
X396500Y695300D01*
X371500Y659063D02*
Y670300D01*
X364244Y659063D02*
X371500D01*
X357000Y661032D02*
X364244D01*
X357000D02*
Y665000D01*
X364200Y672200D01*
Y686400D01*
X368300Y676200D02*
X376200Y684100D01*
X355386Y683027D02*
X378359Y706000D01*
X355386Y671858D02*
Y683027D01*
X353417Y671858D02*
Y687417D01*
X351449Y671858D02*
Y695449D01*
X349480Y671858D02*
Y703480D01*
X347512Y671858D02*
Y700488D01*
X345543Y671858D02*
Y692457D01*
X343575Y671858D02*
Y680736D01*
X319677Y668923D02*
X324000Y664600D01*
X327827D01*
Y671858D01*
X322227Y682331D02*
X325858Y678700D01*
Y671858D02*
Y678700D01*
X333732Y671858D02*
Y683900D01*
X331764Y671858D02*
Y679100D01*
X355900Y649221D02*
X356300D01*
X341606Y663514D02*
Y671858D01*
X352500Y648421D02*
X353300Y649221D01*
X326400Y659063D02*
X329500Y655963D01*
Y654500D02*
X329571Y654571D01*
X374700Y636000D02*
Y641000D01*
X368300Y663000D02*
Y676200D01*
X341606Y663514D02*
X355900Y649221D01*
X353300D02*
X355900D01*
X356300D01*
X329500Y654500D02*
Y654571D01*
Y655963D01*
D53*
X474800Y904000D02*
X478693D01*
X470800Y900000D02*
X474800Y904000D01*
D54*
X457800Y880600D02*
X460200Y883000D01*
X457800Y872000D02*
Y880600D01*
X455300Y869500D02*
X457800Y872000D01*
X446976Y869500D02*
X455300D01*
X446976Y864500D02*
X450900D01*
X460488Y854912D01*
X462000Y869500D02*
X469024D01*
X460800Y870700D02*
X462000Y869500D01*
X460800Y870700D02*
Y878300D01*
X462000Y879500D01*
X469024D01*
X475437D01*
X479937Y884000D01*
Y889606D01*
X406039Y586807D02*
X406900D01*
X235709Y519740D02*
X238400D01*
X284000Y879106D02*
X292472D01*
X279400Y874506D02*
X284000Y879106D01*
X469024Y874500D02*
X485461D01*
X237234Y521266D02*
X238400Y520100D01*
X234500Y524000D02*
X237234Y521266D01*
X238400Y519740D02*
Y520100D01*
D55*
X351740Y796488D02*
X356712D01*
X361000Y792200D01*
X346300Y791370D02*
Y809200D01*
Y791370D02*
X351740D01*
X341389Y784500D02*
X345700Y788811D01*
X351740D01*
X330480Y793929D02*
X334829D01*
X335900Y795000D01*
Y804000D01*
X323891Y791370D02*
X330480D01*
X321021Y788500D02*
X323891Y791370D01*
X317500Y788500D02*
X321021D01*
X324487Y799047D02*
X330480D01*
X321700Y796260D02*
X324487Y799047D01*
X358000Y805900D02*
X370609D01*
X355000Y802900D02*
X358000Y805900D01*
X351740Y801606D02*
X355000D01*
X324988Y796488D02*
X330480D01*
X329000Y801606D02*
X330480D01*
X351740Y793929D02*
X356000D01*
X357200Y792729D01*
Y784000D02*
Y792729D01*
X330480Y788811D02*
X341110D01*
X327200D02*
X330480D01*
X324107Y784718D02*
X327200Y787811D01*
X314782Y784718D02*
X324107D01*
X313500Y786000D02*
X314782Y784718D01*
X310500Y786000D02*
X313500D01*
X355000Y801606D02*
Y802900D01*
X329000Y801606D02*
Y813000D01*
X327200Y787811D02*
Y788811D01*
D56*
X416594Y560106D02*
X418700Y558000D01*
X412268Y560106D02*
X416594D01*
X406900Y561206D02*
X408000Y560106D01*
X412268D01*
Y560106D01*
X406900Y561206D02*
Y586807D01*
X418700Y507599D02*
Y526200D01*
Y558000D01*
D57*
X284273Y492541D02*
X302732Y511000D01*
D58*
X451874Y816000D02*
D03*
X351874Y842000D02*
D03*
X496500Y772000D02*
D03*
Y762000D02*
D03*
Y752000D02*
D03*
Y742000D02*
D03*
Y732000D02*
D03*
X479394Y358701D02*
D03*
X469394D02*
D03*
X459394D02*
D03*
X449394D02*
D03*
X439394D02*
D03*
X429394D02*
D03*
X419394D02*
D03*
X256000Y724000D02*
D03*
X246000D02*
D03*
X280000Y744000D02*
D03*
X270000D02*
D03*
X260000D02*
D03*
X250000D02*
D03*
X240000D02*
D03*
X350000Y938000D02*
D03*
X360000D02*
D03*
X370000D02*
D03*
X380000D02*
D03*
X466000Y584000D02*
D03*
Y574000D02*
D03*
Y564000D02*
D03*
Y554000D02*
D03*
Y544000D02*
D03*
X402000Y706000D02*
D03*
X392000D02*
D03*
X382000D02*
D03*
X372000D02*
D03*
X362000D02*
D03*
X352000D02*
D03*
X342000D02*
D03*
X332000D02*
D03*
X322000D02*
D03*
X312000D02*
D03*
X302000D02*
D03*
X292000D02*
D03*
X282000D02*
D03*
X272000D02*
D03*
X262000D02*
D03*
X406126Y812000D02*
D03*
D59*
X444000Y816000D02*
D03*
X344000Y842000D02*
D03*
X489394Y358701D02*
D03*
X266000Y724000D02*
D03*
X290000Y744000D02*
D03*
X390000Y938000D02*
D03*
X252000Y706000D02*
D03*
X414000Y812000D02*
D03*
D60*
X458500Y779500D02*
D03*
X438500Y759500D02*
D03*
X458500D02*
D03*
X438500Y779500D02*
D03*
D61*
X496500Y722000D02*
D03*
X466000Y594000D02*
D03*
D62*
X276800Y933800D02*
D03*
X473600D02*
D03*
X217700Y666100D02*
D03*
X532700D02*
D03*
Y429900D02*
D03*
X217700D02*
D03*
D63*
X474500Y561500D02*
D03*
X375000Y691000D02*
D03*
X459000Y680000D02*
D03*
X305200Y502500D02*
D03*
X391400Y512600D02*
D03*
X227722Y501166D02*
D03*
X237500Y491387D02*
D03*
X382100Y918900D02*
D03*
X345000Y645500D02*
D03*
X499900Y338260D02*
D03*
X354700Y657500D02*
D03*
X365200Y539400D02*
D03*
X232750Y530000D02*
D03*
X268000Y897800D02*
D03*
X447453Y499500D02*
D03*
X337700Y499200D02*
D03*
X466500Y462000D02*
D03*
X456500Y477500D02*
D03*
X335396Y492900D02*
D03*
X358500Y507300D02*
D03*
X467453Y504800D02*
D03*
X372500Y618500D02*
D03*
X276500Y655800D02*
D03*
X284100Y641733D02*
D03*
X317500Y788500D02*
D03*
X318000Y780500D02*
D03*
X312200Y797700D02*
D03*
X302200Y805000D02*
D03*
X404900Y634000D02*
D03*
X306700Y543800D02*
D03*
X323000Y507500D02*
D03*
X485300Y745100D02*
D03*
X269100Y500800D02*
D03*
X261900Y514000D02*
D03*
X312700Y508100D02*
D03*
X393000Y818000D02*
D03*
X396500Y695300D02*
D03*
X403000Y715000D02*
D03*
X417900Y568600D02*
D03*
X319677Y668923D02*
D03*
X429400Y522500D02*
D03*
X295100Y669900D02*
D03*
X424500Y517000D02*
D03*
X313600Y674500D02*
D03*
X304500Y676500D02*
D03*
X259500Y667000D02*
D03*
X276900Y580400D02*
D03*
X328364Y682500D02*
D03*
X272500Y689600D02*
D03*
X270800Y581900D02*
D03*
X331100Y615300D02*
D03*
X234500Y524000D02*
D03*
X384579Y458650D02*
D03*
X243000Y524300D02*
D03*
X352500Y647500D02*
D03*
X300300Y665900D02*
D03*
X280500D02*
D03*
X280100Y599600D02*
D03*
X350300Y539200D02*
D03*
X305800Y662700D02*
D03*
X299100Y687600D02*
D03*
X285500Y612300D02*
D03*
X375100Y558100D02*
D03*
X437500Y459800D02*
D03*
X316000Y499000D02*
D03*
X329571Y654571D02*
D03*
X316100Y626600D02*
D03*
X324400Y598100D02*
D03*
X409900Y602547D02*
D03*
X359500Y536700D02*
D03*
X268693Y538300D02*
D03*
X389500Y591000D02*
D03*
X324700Y590800D02*
D03*
X307500Y633800D02*
D03*
X335701Y647101D02*
D03*
X476500Y652600D02*
D03*
X331500Y747700D02*
D03*
X341400Y690100D02*
D03*
X331500Y660500D02*
D03*
X459700Y606800D02*
D03*
X445300Y602200D02*
D03*
X323886Y604281D02*
D03*
X357017Y613800D02*
D03*
X449900D02*
D03*
X443900Y635500D02*
D03*
X492000Y605242D02*
D03*
X440100Y737500D02*
D03*
X419000Y765500D02*
D03*
X386500Y662000D02*
D03*
X376500Y646500D02*
D03*
X484300Y597100D02*
D03*
Y585100D02*
D03*
X446000Y656063D02*
D03*
X415500Y646000D02*
D03*
M02*
