%FSLAX25Y25*%
%MOIN*%
G70*
G01*
G75*
G04 Layer_Color=65535*
%ADD10R,0.03150X0.06299*%
%ADD11O,0.12598X0.02362*%
%ADD12R,0.00945X0.11811*%
%ADD13R,0.11811X0.00945*%
%ADD14O,0.11811X0.00945*%
%ADD15R,0.03937X0.04331*%
%ADD16R,0.05906X0.05118*%
%ADD17R,0.05118X0.05906*%
%ADD18R,0.09449X0.07087*%
%ADD19R,0.07874X0.04724*%
%ADD20R,0.08268X0.02362*%
%ADD21R,0.17716X0.19685*%
%ADD22R,0.08661X0.11811*%
%ADD23R,0.11024X0.07874*%
%ADD24R,0.06299X0.03150*%
%ADD25R,0.11000X0.15000*%
%ADD26R,0.10984X0.11811*%
%ADD27R,0.06496X0.04724*%
%ADD28R,0.06496X0.04528*%
%ADD29R,0.06299X0.10630*%
%ADD30R,0.10236X0.09449*%
%ADD31R,0.06299X0.07087*%
%ADD32R,0.07087X0.06299*%
%ADD33R,0.08661X0.13386*%
%ADD34R,0.04528X0.06496*%
%ADD35R,0.04724X0.06496*%
%ADD36R,0.07874X0.01378*%
%ADD37O,0.07874X0.01378*%
%ADD38R,0.06500X0.11201*%
%ADD39R,0.09055X0.05906*%
%ADD40R,0.09055X0.05906*%
%ADD41R,0.09055X0.09055*%
%ADD42R,0.05512X0.14961*%
%ADD43R,0.07284X0.01575*%
%ADD44R,0.23622X0.23622*%
%ADD45O,0.00669X0.05709*%
%ADD46R,0.00669X0.05709*%
%ADD47C,0.02500*%
%ADD48C,0.01000*%
%ADD49C,0.00800*%
%ADD50C,0.00600*%
%ADD51C,0.00661*%
%ADD52C,0.00700*%
%ADD53C,0.02205*%
%ADD54C,0.01654*%
%ADD55C,0.00965*%
%ADD56C,0.01102*%
%ADD57C,0.00900*%
%ADD58C,0.05906*%
%ADD59R,0.05906X0.05906*%
%ADD60C,0.06000*%
%ADD61R,0.05906X0.05906*%
%ADD62C,0.15748*%
%ADD63C,0.05000*%
%ADD64R,0.08661X0.07874*%
%ADD65C,0.00984*%
%ADD66C,0.01200*%
%ADD67C,0.00787*%
%ADD68C,0.01575*%
%ADD69C,0.00591*%
D48*
X392382Y625370D02*
G03*
X384508Y625370I-3937J0D01*
G01*
X287500Y910126D02*
Y918000D01*
X440500Y838126D02*
Y853874D01*
X292500Y823000D02*
X303500D01*
X209500Y527500D02*
Y532500D01*
X235400Y772400D02*
Y874800D01*
X515000Y772400D02*
Y874800D01*
X200000D02*
X235400D01*
X200000Y772400D02*
X235400D01*
X515000D02*
X550400D01*
X515000Y874800D02*
X550400D01*
X515000Y392500D02*
X550400D01*
X515000Y300000D02*
Y392500D01*
X266900Y300000D02*
X483400D01*
X200000Y392500D02*
X235400D01*
X515000Y916100D02*
Y953500D01*
X235400Y916100D02*
Y953500D01*
X515000D01*
X235400Y300000D02*
Y392500D01*
X483400Y300000D02*
X515000D01*
X235400D02*
X266900D01*
X515000Y916100D02*
X550400D01*
Y392500D02*
Y772400D01*
X550500Y874800D02*
Y915800D01*
X200000Y916100D02*
X235400D01*
X200000Y392500D02*
Y772400D01*
Y874800D02*
Y916100D01*
X267500Y793500D02*
X272500D01*
X362500Y791000D02*
X373500D01*
X382500Y761000D02*
X393500D01*
X251500Y810500D02*
X256500D01*
X398287Y661591D02*
Y666709D01*
X378602Y661591D02*
Y666709D01*
Y641512D02*
Y650567D01*
Y625370D02*
Y630488D01*
X398287Y625370D02*
Y628913D01*
Y643087D02*
Y650567D01*
X378602Y666709D02*
X398287D01*
X378602Y625370D02*
X398287D01*
X491311Y425905D02*
Y531689D01*
X471953Y406547D02*
X491311Y425905D01*
X384701Y311047D02*
Y327583D01*
X271279Y311047D02*
X288701D01*
X366779D02*
X384701D01*
X384579Y524433D02*
Y542691D01*
X368480D02*
X384579D01*
X271279Y311047D02*
Y327583D01*
X271480Y524433D02*
Y542691D01*
X287579D01*
X280500Y862498D02*
Y857500D01*
X281500Y856500D01*
X283499D01*
X284499Y857500D01*
Y862498D01*
X286498Y857500D02*
X287498Y856500D01*
X289497D01*
X290497Y857500D01*
Y861498D01*
X289497Y862498D01*
X287498D01*
X286498Y861498D01*
Y860499D01*
X287498Y859499D01*
X290497D01*
X449500Y892498D02*
Y887500D01*
X450500Y886500D01*
X452499D01*
X453499Y887500D01*
Y892498D01*
X455498Y891498D02*
X456498Y892498D01*
X458497D01*
X459497Y891498D01*
Y890499D01*
X458497Y889499D01*
X459497Y888499D01*
Y887500D01*
X458497Y886500D01*
X456498D01*
X455498Y887500D01*
Y888499D01*
X456498Y889499D01*
X455498Y890499D01*
Y891498D01*
X456498Y889499D02*
X458497D01*
X347000Y810998D02*
Y806000D01*
X348000Y805000D01*
X349999D01*
X350999Y806000D01*
Y810998D01*
X352998D02*
X356997D01*
Y809998D01*
X352998Y806000D01*
Y805000D01*
X383500Y674998D02*
Y670000D01*
X384500Y669000D01*
X386499D01*
X387499Y670000D01*
Y674998D01*
X393497D02*
X391497Y673998D01*
X389498Y671999D01*
Y670000D01*
X390498Y669000D01*
X392497D01*
X393497Y670000D01*
Y670999D01*
X392497Y671999D01*
X389498D01*
X399453Y573045D02*
Y568047D01*
X400452Y567047D01*
X402452D01*
X403451Y568047D01*
Y573045D01*
X405451Y572046D02*
X406451Y573045D01*
X408450D01*
X409449Y572046D01*
Y571046D01*
X408450Y570046D01*
X407450D01*
X408450D01*
X409449Y569047D01*
Y568047D01*
X408450Y567047D01*
X406451D01*
X405451Y568047D01*
X409955Y433547D02*
X414953D01*
X415953Y434547D01*
Y436546D01*
X414953Y437546D01*
X409955D01*
X415953Y443544D02*
Y439545D01*
X411954Y443544D01*
X410954D01*
X409955Y442544D01*
Y440545D01*
X410954Y439545D01*
X311000Y676498D02*
Y671500D01*
X312000Y670500D01*
X313999D01*
X314999Y671500D01*
Y676498D01*
X316998Y670500D02*
X318997D01*
X317998D01*
Y676498D01*
X316998Y675498D01*
X468499Y818998D02*
X467499Y819998D01*
X465500D01*
X464500Y818998D01*
Y817999D01*
X465500Y816999D01*
X467499D01*
X468499Y815999D01*
Y815000D01*
X467499Y814000D01*
X465500D01*
X464500Y815000D01*
X474497Y814000D02*
X470498D01*
X474497Y817999D01*
Y818998D01*
X473497Y819998D01*
X471498D01*
X470498Y818998D01*
X448499Y772998D02*
X447499Y773998D01*
X445500D01*
X444500Y772998D01*
Y771999D01*
X445500Y770999D01*
X447499D01*
X448499Y769999D01*
Y769000D01*
X447499Y768000D01*
X445500D01*
X444500Y769000D01*
X450498Y768000D02*
X452497D01*
X451498D01*
Y773998D01*
X450498Y772998D01*
X367000Y818500D02*
Y824498D01*
X369999D01*
X370999Y823498D01*
Y821499D01*
X369999Y820499D01*
X367000D01*
X368999D02*
X370999Y818500D01*
X372998Y824498D02*
X376997D01*
X374997D01*
Y818500D01*
X378996D02*
X380995D01*
X379996D01*
Y824498D01*
X378996Y823498D01*
X251000Y848500D02*
X245002D01*
Y851499D01*
X246002Y852499D01*
X248001D01*
X249001Y851499D01*
Y848500D01*
Y850499D02*
X251000Y852499D01*
X246002Y854498D02*
X245002Y855498D01*
Y857497D01*
X246002Y858497D01*
X247001D01*
X248001Y857497D01*
Y856497D01*
Y857497D01*
X249001Y858497D01*
X250000D01*
X251000Y857497D01*
Y855498D01*
X250000Y854498D01*
Y860496D02*
X251000Y861496D01*
Y863495D01*
X250000Y864495D01*
X246002D01*
X245002Y863495D01*
Y861496D01*
X246002Y860496D01*
X247001D01*
X248001Y861496D01*
Y864495D01*
X353449Y866106D02*
X347451D01*
Y869105D01*
X348450Y870105D01*
X350450D01*
X351449Y869105D01*
Y866106D01*
Y868106D02*
X353449Y870105D01*
X348450Y872104D02*
X347451Y873104D01*
Y875103D01*
X348450Y876103D01*
X349450D01*
X350450Y875103D01*
Y874104D01*
Y875103D01*
X351449Y876103D01*
X352449D01*
X353449Y875103D01*
Y873104D01*
X352449Y872104D01*
X348450Y878102D02*
X347451Y879102D01*
Y881101D01*
X348450Y882101D01*
X349450D01*
X350450Y881101D01*
X351449Y882101D01*
X352449D01*
X353449Y881101D01*
Y879102D01*
X352449Y878102D01*
X351449D01*
X350450Y879102D01*
X349450Y878102D01*
X348450D01*
X350450Y879102D02*
Y881101D01*
X325949Y866606D02*
X319951D01*
Y869605D01*
X320950Y870605D01*
X322950D01*
X323950Y869605D01*
Y866606D01*
Y868606D02*
X325949Y870605D01*
X320950Y872604D02*
X319951Y873604D01*
Y875603D01*
X320950Y876603D01*
X321950D01*
X322950Y875603D01*
Y874604D01*
Y875603D01*
X323950Y876603D01*
X324949D01*
X325949Y875603D01*
Y873604D01*
X324949Y872604D01*
X319951Y878602D02*
Y882601D01*
X320950D01*
X324949Y878602D01*
X325949D01*
X250500Y871000D02*
X244502D01*
Y873999D01*
X245502Y874999D01*
X247501D01*
X248501Y873999D01*
Y871000D01*
Y872999D02*
X250500Y874999D01*
X245502Y876998D02*
X244502Y877998D01*
Y879997D01*
X245502Y880997D01*
X246501D01*
X247501Y879997D01*
Y878997D01*
Y879997D01*
X248501Y880997D01*
X249500D01*
X250500Y879997D01*
Y877998D01*
X249500Y876998D01*
X244502Y886995D02*
X245502Y884995D01*
X247501Y882996D01*
X249500D01*
X250500Y883996D01*
Y885995D01*
X249500Y886995D01*
X248501D01*
X247501Y885995D01*
Y882996D01*
X353000Y857000D02*
Y862998D01*
X355999D01*
X356999Y861998D01*
Y859999D01*
X355999Y858999D01*
X353000D01*
X354999D02*
X356999Y857000D01*
X358998Y861998D02*
X359998Y862998D01*
X361997D01*
X362997Y861998D01*
Y860999D01*
X361997Y859999D01*
X360997D01*
X361997D01*
X362997Y858999D01*
Y858000D01*
X361997Y857000D01*
X359998D01*
X358998Y858000D01*
X368995Y862998D02*
X364996D01*
Y859999D01*
X366996Y860999D01*
X367995D01*
X368995Y859999D01*
Y858000D01*
X367995Y857000D01*
X365996D01*
X364996Y858000D01*
X295000Y768000D02*
Y773998D01*
X297999D01*
X298999Y772998D01*
Y770999D01*
X297999Y769999D01*
X295000D01*
X296999D02*
X298999Y768000D01*
X300998Y772998D02*
X301998Y773998D01*
X303997D01*
X304997Y772998D01*
Y771999D01*
X303997Y770999D01*
X302997D01*
X303997D01*
X304997Y769999D01*
Y769000D01*
X303997Y768000D01*
X301998D01*
X300998Y769000D01*
X309995Y768000D02*
Y773998D01*
X306996Y770999D01*
X310995D01*
X480500Y866500D02*
Y872498D01*
X483499D01*
X484499Y871498D01*
Y869499D01*
X483499Y868499D01*
X480500D01*
X482499D02*
X484499Y866500D01*
X486498Y871498D02*
X487498Y872498D01*
X489497D01*
X490497Y871498D01*
Y870499D01*
X489497Y869499D01*
X488497D01*
X489497D01*
X490497Y868499D01*
Y867500D01*
X489497Y866500D01*
X487498D01*
X486498Y867500D01*
X492496Y871498D02*
X493496Y872498D01*
X495495D01*
X496495Y871498D01*
Y870499D01*
X495495Y869499D01*
X494495D01*
X495495D01*
X496495Y868499D01*
Y867500D01*
X495495Y866500D01*
X493496D01*
X492496Y867500D01*
X329500Y768500D02*
Y774498D01*
X332499D01*
X333499Y773498D01*
Y771499D01*
X332499Y770499D01*
X329500D01*
X331499D02*
X333499Y768500D01*
X335498Y773498D02*
X336498Y774498D01*
X338497D01*
X339497Y773498D01*
Y772499D01*
X338497Y771499D01*
X337497D01*
X338497D01*
X339497Y770499D01*
Y769500D01*
X338497Y768500D01*
X336498D01*
X335498Y769500D01*
X345495Y768500D02*
X341496D01*
X345495Y772499D01*
Y773498D01*
X344495Y774498D01*
X342496D01*
X341496Y773498D01*
X328500Y759000D02*
X334498D01*
Y756001D01*
X333498Y755001D01*
X331499D01*
X330499Y756001D01*
Y759000D01*
Y757001D02*
X328500Y755001D01*
X333498Y753002D02*
X334498Y752002D01*
Y750003D01*
X333498Y749003D01*
X332499D01*
X331499Y750003D01*
Y751003D01*
Y750003D01*
X330499Y749003D01*
X329500D01*
X328500Y750003D01*
Y752002D01*
X329500Y753002D01*
X328500Y747004D02*
Y745005D01*
Y746004D01*
X334498D01*
X333498Y747004D01*
X252500Y773000D02*
Y778998D01*
X255499D01*
X256499Y777998D01*
Y775999D01*
X255499Y774999D01*
X252500D01*
X254499D02*
X256499Y773000D01*
X258498Y777998D02*
X259498Y778998D01*
X261497D01*
X262497Y777998D01*
Y776999D01*
X261497Y775999D01*
X260497D01*
X261497D01*
X262497Y774999D01*
Y774000D01*
X261497Y773000D01*
X259498D01*
X258498Y774000D01*
X264496Y777998D02*
X265496Y778998D01*
X267495D01*
X268495Y777998D01*
Y774000D01*
X267495Y773000D01*
X265496D01*
X264496Y774000D01*
Y777998D01*
X276500Y808000D02*
X282498D01*
Y805001D01*
X281498Y804001D01*
X279499D01*
X278499Y805001D01*
Y808000D01*
Y806001D02*
X276500Y804001D01*
Y798003D02*
Y802002D01*
X280499Y798003D01*
X281498D01*
X282498Y799003D01*
Y801002D01*
X281498Y802002D01*
X277500Y796004D02*
X276500Y795004D01*
Y793005D01*
X277500Y792005D01*
X281498D01*
X282498Y793005D01*
Y795004D01*
X281498Y796004D01*
X280499D01*
X279499Y795004D01*
Y792005D01*
X282000Y783500D02*
Y789498D01*
X284999D01*
X285999Y788498D01*
Y786499D01*
X284999Y785499D01*
X282000D01*
X283999D02*
X285999Y783500D01*
X291997D02*
X287998D01*
X291997Y787499D01*
Y788498D01*
X290997Y789498D01*
X288998D01*
X287998Y788498D01*
X293996D02*
X294996Y789498D01*
X296995D01*
X297995Y788498D01*
Y787499D01*
X296995Y786499D01*
X297995Y785499D01*
Y784500D01*
X296995Y783500D01*
X294996D01*
X293996Y784500D01*
Y785499D01*
X294996Y786499D01*
X293996Y787499D01*
Y788498D01*
X294996Y786499D02*
X296995D01*
X312500Y791500D02*
X306502D01*
Y794499D01*
X307502Y795499D01*
X309501D01*
X310501Y794499D01*
Y791500D01*
Y793499D02*
X312500Y795499D01*
Y801497D02*
Y797498D01*
X308501Y801497D01*
X307502D01*
X306502Y800497D01*
Y798498D01*
X307502Y797498D01*
X306502Y803496D02*
Y807495D01*
X307502D01*
X311500Y803496D01*
X312500D01*
X505500Y331500D02*
X499502D01*
Y334499D01*
X500502Y335499D01*
X502501D01*
X503501Y334499D01*
Y331500D01*
Y333499D02*
X505500Y335499D01*
Y341497D02*
Y337498D01*
X501501Y341497D01*
X500502D01*
X499502Y340497D01*
Y338498D01*
X500502Y337498D01*
X499502Y347495D02*
X500502Y345496D01*
X502501Y343496D01*
X504500D01*
X505500Y344496D01*
Y346495D01*
X504500Y347495D01*
X503501D01*
X502501Y346495D01*
Y343496D01*
X246300Y689400D02*
Y695398D01*
X249299D01*
X250299Y694398D01*
Y692399D01*
X249299Y691399D01*
X246300D01*
X248299D02*
X250299Y689400D01*
X256297D02*
X252298D01*
X256297Y693399D01*
Y694398D01*
X255297Y695398D01*
X253298D01*
X252298Y694398D01*
X261295Y689400D02*
Y695398D01*
X258296Y692399D01*
X262295D01*
X476500Y711500D02*
X470502D01*
Y714499D01*
X471502Y715499D01*
X473501D01*
X474501Y714499D01*
Y711500D01*
Y713499D02*
X476500Y715499D01*
Y717498D02*
Y719497D01*
Y718498D01*
X470502D01*
X471502Y717498D01*
Y722496D02*
X470502Y723496D01*
Y725495D01*
X471502Y726495D01*
X472501D01*
X473501Y725495D01*
X474501Y726495D01*
X475500D01*
X476500Y725495D01*
Y723496D01*
X475500Y722496D01*
X474501D01*
X473501Y723496D01*
X472501Y722496D01*
X471502D01*
X473501Y723496D02*
Y725495D01*
X284795Y563287D02*
X278797D01*
Y566286D01*
X279797Y567286D01*
X281796D01*
X282796Y566286D01*
Y563287D01*
Y565287D02*
X284795Y567286D01*
Y569285D02*
Y571285D01*
Y570285D01*
X278797D01*
X279797Y569285D01*
X278797Y574284D02*
Y578283D01*
X279797D01*
X283796Y574284D01*
X284795D01*
X387701Y583307D02*
X381703D01*
Y586306D01*
X382702Y587306D01*
X384702D01*
X385701Y586306D01*
Y583307D01*
Y585306D02*
X387701Y587306D01*
Y589305D02*
Y591304D01*
Y590305D01*
X381703D01*
X382702Y589305D01*
X381703Y598302D02*
X382702Y596303D01*
X384702Y594304D01*
X386701D01*
X387701Y595303D01*
Y597303D01*
X386701Y598302D01*
X385701D01*
X384702Y597303D01*
Y594304D01*
X289295Y593287D02*
Y599286D01*
X292294D01*
X293294Y598286D01*
Y596286D01*
X292294Y595287D01*
X289295D01*
X291295D02*
X293294Y593287D01*
X295293D02*
X297293D01*
X296293D01*
Y599286D01*
X295293Y598286D01*
X304290Y599286D02*
X300292D01*
Y596286D01*
X302291Y597286D01*
X303291D01*
X304290Y596286D01*
Y594287D01*
X303291Y593287D01*
X301291D01*
X300292Y594287D01*
X388748Y607047D02*
Y601049D01*
X385749D01*
X384749Y602049D01*
Y604048D01*
X385749Y605048D01*
X388748D01*
X386749D02*
X384749Y607047D01*
X382750D02*
X380751D01*
X381750D01*
Y601049D01*
X382750Y602049D01*
X374753Y607047D02*
Y601049D01*
X377752Y604048D01*
X373753D01*
X245547Y525840D02*
Y531838D01*
X248546D01*
X249546Y530838D01*
Y528839D01*
X248546Y527840D01*
X245547D01*
X247547D02*
X249546Y525840D01*
X251545Y531838D02*
X255544D01*
Y530838D01*
X251545Y526840D01*
Y525840D01*
X245453Y546547D02*
Y552545D01*
X248452D01*
X249451Y551546D01*
Y549546D01*
X248452Y548547D01*
X245453D01*
X247452D02*
X249451Y546547D01*
X255450Y552545D02*
X251451D01*
Y549546D01*
X253450Y550546D01*
X254450D01*
X255450Y549546D01*
Y547547D01*
X254450Y546547D01*
X252450D01*
X251451Y547547D01*
X212000Y501500D02*
Y507498D01*
X214999D01*
X215999Y506498D01*
Y504499D01*
X214999Y503499D01*
X212000D01*
X213999D02*
X215999Y501500D01*
X220997D02*
Y507498D01*
X217998Y504499D01*
X221997D01*
X423453Y548047D02*
Y542049D01*
X420454D01*
X419454Y543049D01*
Y545048D01*
X420454Y546048D01*
X423453D01*
X421453D02*
X419454Y548047D01*
X417455D02*
X415455D01*
X416455D01*
Y542049D01*
X417455Y543049D01*
X309794Y578787D02*
Y582786D01*
X308794Y583785D01*
X306795D01*
X305795Y582786D01*
Y578787D01*
X306795Y577787D01*
X308794D01*
X307795Y579787D02*
X309794Y577787D01*
X308794D02*
X309794Y578787D01*
X311793Y582786D02*
X312793Y583785D01*
X314792D01*
X315792Y582786D01*
Y581786D01*
X314792Y580786D01*
X313793D01*
X314792D01*
X315792Y579787D01*
Y578787D01*
X314792Y577787D01*
X312793D01*
X311793Y578787D01*
X416749Y580048D02*
Y576049D01*
X417749Y575049D01*
X419748D01*
X420748Y576049D01*
Y580048D01*
X419748Y581047D01*
X417749D01*
X418749Y579048D02*
X416749Y581047D01*
X417749D02*
X416749Y580048D01*
X410751Y581047D02*
X414750D01*
X410751Y577048D01*
Y576049D01*
X411751Y575049D01*
X413750D01*
X414750Y576049D01*
X229501Y505500D02*
Y501502D01*
X230501Y500502D01*
X232500D01*
X233500Y501502D01*
Y505500D01*
X232500Y506500D01*
X230501D01*
X231501Y504501D02*
X229501Y506500D01*
X230501D02*
X229501Y505500D01*
X227502Y506500D02*
X225503D01*
X226502D01*
Y500502D01*
X227502Y501502D01*
X402000Y934500D02*
Y940498D01*
X404999D01*
X405999Y939498D01*
Y937499D01*
X404999Y936499D01*
X402000D01*
X407998Y939498D02*
X408998Y940498D01*
X410997D01*
X411997Y939498D01*
Y938499D01*
X410997Y937499D01*
X411997Y936499D01*
Y935500D01*
X410997Y934500D01*
X408998D01*
X407998Y935500D01*
Y936499D01*
X408998Y937499D01*
X407998Y938499D01*
Y939498D01*
X408998Y937499D02*
X410997D01*
X362000Y839000D02*
Y844998D01*
X364999D01*
X365999Y843998D01*
Y841999D01*
X364999Y840999D01*
X362000D01*
X367998Y844998D02*
X371997D01*
Y843998D01*
X367998Y840000D01*
Y839000D01*
X239000Y719500D02*
X233002D01*
Y722499D01*
X234002Y723499D01*
X236001D01*
X237001Y722499D01*
Y719500D01*
X233002Y729497D02*
X234002Y727497D01*
X236001Y725498D01*
X238000D01*
X239000Y726498D01*
Y728497D01*
X238000Y729497D01*
X237001D01*
X236001Y728497D01*
Y725498D01*
X228500Y703500D02*
Y709498D01*
X231499D01*
X232499Y708498D01*
Y706499D01*
X231499Y705499D01*
X228500D01*
X238497Y709498D02*
X234498D01*
Y706499D01*
X236497Y707499D01*
X237497D01*
X238497Y706499D01*
Y704500D01*
X237497Y703500D01*
X235498D01*
X234498Y704500D01*
X461600Y602400D02*
Y608398D01*
X464599D01*
X465599Y607398D01*
Y605399D01*
X464599Y604399D01*
X461600D01*
X470597Y602400D02*
Y608398D01*
X467598Y605399D01*
X471597D01*
X407500Y339500D02*
Y345498D01*
X410499D01*
X411499Y344498D01*
Y342499D01*
X410499Y341499D01*
X407500D01*
X413498Y344498D02*
X414498Y345498D01*
X416497D01*
X417497Y344498D01*
Y343499D01*
X416497Y342499D01*
X415497D01*
X416497D01*
X417497Y341499D01*
Y340500D01*
X416497Y339500D01*
X414498D01*
X413498Y340500D01*
X217500Y738500D02*
Y744498D01*
X220499D01*
X221499Y743498D01*
Y741499D01*
X220499Y740499D01*
X217500D01*
X227497Y738500D02*
X223498D01*
X227497Y742499D01*
Y743498D01*
X226497Y744498D01*
X224498D01*
X223498Y743498D01*
X492150Y780350D02*
Y786348D01*
X495149D01*
X496149Y785348D01*
Y783349D01*
X495149Y782349D01*
X492150D01*
X498148Y780350D02*
X500147D01*
X499148D01*
Y786348D01*
X498148Y785348D01*
X341000Y917998D02*
Y912000D01*
X344999D01*
X346998Y916998D02*
X347998Y917998D01*
X349997D01*
X350997Y916998D01*
Y915999D01*
X349997Y914999D01*
X348997D01*
X349997D01*
X350997Y913999D01*
Y913000D01*
X349997Y912000D01*
X347998D01*
X346998Y913000D01*
X402000Y926498D02*
Y920500D01*
X405999D01*
X411997D02*
X407998D01*
X411997Y924499D01*
Y925498D01*
X410997Y926498D01*
X408998D01*
X407998Y925498D01*
X379000Y734498D02*
Y728500D01*
X382999D01*
X384998D02*
X386997D01*
X385998D01*
Y734498D01*
X384998Y733498D01*
X250500Y917998D02*
Y912000D01*
X253499D01*
X254499Y913000D01*
Y916998D01*
X253499Y917998D01*
X250500D01*
X256498Y912000D02*
X258497D01*
X257498D01*
Y917998D01*
X256498Y916998D01*
X261496Y913000D02*
X262496Y912000D01*
X264495D01*
X265495Y913000D01*
Y916998D01*
X264495Y917998D01*
X262496D01*
X261496Y916998D01*
Y915999D01*
X262496Y914999D01*
X265495D01*
X464500Y916998D02*
Y911000D01*
X467499D01*
X468499Y912000D01*
Y915998D01*
X467499Y916998D01*
X464500D01*
X470498Y911000D02*
X472497D01*
X471498D01*
Y916998D01*
X470498Y915998D01*
X475496D02*
X476496Y916998D01*
X478496D01*
X479495Y915998D01*
Y914999D01*
X478496Y913999D01*
X479495Y912999D01*
Y912000D01*
X478496Y911000D01*
X476496D01*
X475496Y912000D01*
Y912999D01*
X476496Y913999D01*
X475496Y914999D01*
Y915998D01*
X476496Y913999D02*
X478496D01*
X369500Y814998D02*
Y809000D01*
X372499D01*
X373499Y810000D01*
Y813998D01*
X372499Y814998D01*
X369500D01*
X375498Y809000D02*
X377497D01*
X376498D01*
Y814998D01*
X375498Y813998D01*
X380496Y814998D02*
X384495D01*
Y813998D01*
X380496Y810000D01*
Y809000D01*
X403502Y847000D02*
X409500D01*
Y849999D01*
X408500Y850999D01*
X404502D01*
X403502Y849999D01*
Y847000D01*
X409500Y852998D02*
Y854997D01*
Y853998D01*
X403502D01*
X404502Y852998D01*
X403502Y861995D02*
X404502Y859996D01*
X406501Y857996D01*
X408500D01*
X409500Y858996D01*
Y860995D01*
X408500Y861995D01*
X407501D01*
X406501Y860995D01*
Y857996D01*
X250502Y814000D02*
X256500D01*
Y816999D01*
X255500Y817999D01*
X251502D01*
X250502Y816999D01*
Y814000D01*
X256500Y819998D02*
Y821997D01*
Y820998D01*
X250502D01*
X251502Y819998D01*
X250502Y828995D02*
Y824996D01*
X253501D01*
X252501Y826996D01*
Y827995D01*
X253501Y828995D01*
X255500D01*
X256500Y827995D01*
Y825996D01*
X255500Y824996D01*
X265502Y817500D02*
X271500D01*
Y820499D01*
X270500Y821499D01*
X266502D01*
X265502Y820499D01*
Y817500D01*
X271500Y823498D02*
Y825497D01*
Y824498D01*
X265502D01*
X266502Y823498D01*
X271500Y831495D02*
X265502D01*
X268501Y828496D01*
Y832495D01*
X391500Y738498D02*
Y732500D01*
X394499D01*
X395499Y733500D01*
Y737498D01*
X394499Y738498D01*
X391500D01*
X397498Y732500D02*
X399497D01*
X398498D01*
Y738498D01*
X397498Y737498D01*
X402496D02*
X403496Y738498D01*
X405496D01*
X406495Y737498D01*
Y736499D01*
X405496Y735499D01*
X404496D01*
X405496D01*
X406495Y734499D01*
Y733500D01*
X405496Y732500D01*
X403496D01*
X402496Y733500D01*
X281553Y826394D02*
X287551D01*
Y829393D01*
X286551Y830392D01*
X282553D01*
X281553Y829393D01*
Y826394D01*
X287551Y832392D02*
Y834391D01*
Y833391D01*
X281553D01*
X282553Y832392D01*
X287551Y841389D02*
Y837390D01*
X283553Y841389D01*
X282553D01*
X281553Y840389D01*
Y838390D01*
X282553Y837390D01*
X421000Y393002D02*
Y399000D01*
X418001D01*
X417001Y398000D01*
Y394002D01*
X418001Y393002D01*
X421000D01*
X415002D02*
X411003D01*
Y394002D01*
X415002Y398000D01*
Y399000D01*
X434500Y366002D02*
Y372000D01*
X431501D01*
X430501Y371000D01*
Y367002D01*
X431501Y366002D01*
X434500D01*
X424503D02*
X426503Y367002D01*
X428502Y369001D01*
Y371000D01*
X427502Y372000D01*
X425503D01*
X424503Y371000D01*
Y370001D01*
X425503Y369001D01*
X428502D01*
X445000Y392502D02*
Y398500D01*
X442001D01*
X441001Y397500D01*
Y393502D01*
X442001Y392502D01*
X445000D01*
X435003D02*
X439002D01*
Y395501D01*
X437003Y394501D01*
X436003D01*
X435003Y395501D01*
Y397500D01*
X436003Y398500D01*
X438002D01*
X439002Y397500D01*
X455500Y366002D02*
Y372000D01*
X452501D01*
X451501Y371000D01*
Y367002D01*
X452501Y366002D01*
X455500D01*
X446503Y372000D02*
Y366002D01*
X449502Y369001D01*
X445503D01*
X507500Y712498D02*
Y706500D01*
X510499D01*
X511499Y707500D01*
Y711498D01*
X510499Y712498D01*
X507500D01*
X513498Y711498D02*
X514498Y712498D01*
X516497D01*
X517497Y711498D01*
Y710499D01*
X516497Y709499D01*
X515497D01*
X516497D01*
X517497Y708499D01*
Y707500D01*
X516497Y706500D01*
X514498D01*
X513498Y707500D01*
X480502Y739000D02*
X486500D01*
Y741999D01*
X485500Y742999D01*
X481502D01*
X480502Y741999D01*
Y739000D01*
X486500Y748997D02*
Y744998D01*
X482501Y748997D01*
X481502D01*
X480502Y747997D01*
Y745998D01*
X481502Y744998D01*
X209000Y542998D02*
Y537000D01*
X211999D01*
X212999Y538000D01*
Y541998D01*
X211999Y542998D01*
X209000D01*
X214998Y537000D02*
X216997D01*
X215998D01*
Y542998D01*
X214998Y541998D01*
X237999Y903498D02*
X236999Y904498D01*
X235000D01*
X234000Y903498D01*
Y899500D01*
X235000Y898500D01*
X236999D01*
X237999Y899500D01*
X242997Y898500D02*
Y904498D01*
X239998Y901499D01*
X243997D01*
X245996Y899500D02*
X246996Y898500D01*
X248995D01*
X249995Y899500D01*
Y903498D01*
X248995Y904498D01*
X246996D01*
X245996Y903498D01*
Y902499D01*
X246996Y901499D01*
X249995D01*
X300502Y852499D02*
X299502Y851499D01*
Y849500D01*
X300502Y848500D01*
X304500D01*
X305500Y849500D01*
Y851499D01*
X304500Y852499D01*
X305500Y857497D02*
X299502D01*
X302501Y854498D01*
Y858497D01*
X300502Y860496D02*
X299502Y861496D01*
Y863495D01*
X300502Y864495D01*
X301501D01*
X302501Y863495D01*
X303501Y864495D01*
X304500D01*
X305500Y863495D01*
Y861496D01*
X304500Y860496D01*
X303501D01*
X302501Y861496D01*
X301501Y860496D01*
X300502D01*
X302501Y861496D02*
Y863495D01*
X279999Y850498D02*
X278999Y851498D01*
X277000D01*
X276000Y850498D01*
Y846500D01*
X277000Y845500D01*
X278999D01*
X279999Y846500D01*
X284997Y845500D02*
Y851498D01*
X281998Y848499D01*
X285997D01*
X287996Y851498D02*
X291995D01*
Y850498D01*
X287996Y846500D01*
Y845500D01*
X313550Y854892D02*
X312550Y855892D01*
X310551D01*
X309551Y854892D01*
Y850893D01*
X310551Y849894D01*
X312550D01*
X313550Y850893D01*
X318548Y849894D02*
Y855892D01*
X315549Y852893D01*
X319548D01*
X325546Y855892D02*
X323547Y854892D01*
X321547Y852893D01*
Y850893D01*
X322547Y849894D01*
X324546D01*
X325546Y850893D01*
Y851893D01*
X324546Y852893D01*
X321547D01*
X305999Y943998D02*
X304999Y944998D01*
X303000D01*
X302000Y943998D01*
Y940000D01*
X303000Y939000D01*
X304999D01*
X305999Y940000D01*
X310997Y939000D02*
Y944998D01*
X307998Y941999D01*
X311997D01*
X317995Y944998D02*
X313996D01*
Y941999D01*
X315996Y942999D01*
X316995D01*
X317995Y941999D01*
Y940000D01*
X316995Y939000D01*
X314996D01*
X313996Y940000D01*
X271499Y900998D02*
X270499Y901998D01*
X268500D01*
X267500Y900998D01*
Y897000D01*
X268500Y896000D01*
X270499D01*
X271499Y897000D01*
X276497Y896000D02*
Y901998D01*
X273498Y898999D01*
X277497D01*
X282495Y896000D02*
Y901998D01*
X279496Y898999D01*
X283495D01*
X490999Y835498D02*
X489999Y836498D01*
X488000D01*
X487000Y835498D01*
Y831500D01*
X488000Y830500D01*
X489999D01*
X490999Y831500D01*
X495997Y830500D02*
Y836498D01*
X492998Y833499D01*
X496997D01*
X498996Y835498D02*
X499996Y836498D01*
X501995D01*
X502995Y835498D01*
Y834499D01*
X501995Y833499D01*
X500995D01*
X501995D01*
X502995Y832499D01*
Y831500D01*
X501995Y830500D01*
X499996D01*
X498996Y831500D01*
X501002Y853499D02*
X500002Y852499D01*
Y850500D01*
X501002Y849500D01*
X505000D01*
X506000Y850500D01*
Y852499D01*
X505000Y853499D01*
X506000Y858497D02*
X500002D01*
X503001Y855498D01*
Y859497D01*
X506000Y865495D02*
Y861496D01*
X502001Y865495D01*
X501002D01*
X500002Y864495D01*
Y862496D01*
X501002Y861496D01*
X404999Y763498D02*
X403999Y764498D01*
X402000D01*
X401000Y763498D01*
Y759500D01*
X402000Y758500D01*
X403999D01*
X404999Y759500D01*
X409997Y758500D02*
Y764498D01*
X406998Y761499D01*
X410997D01*
X412996Y758500D02*
X414995D01*
X413996D01*
Y764498D01*
X412996Y763498D01*
X424499Y797498D02*
X423499Y798498D01*
X421500D01*
X420500Y797498D01*
Y793500D01*
X421500Y792500D01*
X423499D01*
X424499Y793500D01*
X429497Y792500D02*
Y798498D01*
X426498Y795499D01*
X430497D01*
X432496Y797498D02*
X433496Y798498D01*
X435495D01*
X436495Y797498D01*
Y793500D01*
X435495Y792500D01*
X433496D01*
X432496Y793500D01*
Y797498D01*
X492499Y899998D02*
X491499Y900998D01*
X489500D01*
X488500Y899998D01*
Y896000D01*
X489500Y895000D01*
X491499D01*
X492499Y896000D01*
X494498Y899998D02*
X495498Y900998D01*
X497497D01*
X498497Y899998D01*
Y898999D01*
X497497Y897999D01*
X496497D01*
X497497D01*
X498497Y896999D01*
Y896000D01*
X497497Y895000D01*
X495498D01*
X494498Y896000D01*
X500496D02*
X501496Y895000D01*
X503495D01*
X504495Y896000D01*
Y899998D01*
X503495Y900998D01*
X501496D01*
X500496Y899998D01*
Y898999D01*
X501496Y897999D01*
X504495D01*
X445499Y913498D02*
X444499Y914498D01*
X442500D01*
X441500Y913498D01*
Y909500D01*
X442500Y908500D01*
X444499D01*
X445499Y909500D01*
X447498Y913498D02*
X448498Y914498D01*
X450497D01*
X451497Y913498D01*
Y912499D01*
X450497Y911499D01*
X449497D01*
X450497D01*
X451497Y910499D01*
Y909500D01*
X450497Y908500D01*
X448498D01*
X447498Y909500D01*
X453496Y913498D02*
X454496Y914498D01*
X456495D01*
X457495Y913498D01*
Y912499D01*
X456495Y911499D01*
X457495Y910499D01*
Y909500D01*
X456495Y908500D01*
X454496D01*
X453496Y909500D01*
Y910499D01*
X454496Y911499D01*
X453496Y912499D01*
Y913498D01*
X454496Y911499D02*
X456495D01*
X463999Y836498D02*
X462999Y837498D01*
X461000D01*
X460000Y836498D01*
Y832500D01*
X461000Y831500D01*
X462999D01*
X463999Y832500D01*
X465998Y836498D02*
X466998Y837498D01*
X468997D01*
X469997Y836498D01*
Y835499D01*
X468997Y834499D01*
X467997D01*
X468997D01*
X469997Y833499D01*
Y832500D01*
X468997Y831500D01*
X466998D01*
X465998Y832500D01*
X471996Y837498D02*
X475995D01*
Y836498D01*
X471996Y832500D01*
Y831500D01*
X393948Y834105D02*
X392948Y835104D01*
X390949D01*
X389949Y834105D01*
Y830106D01*
X390949Y829106D01*
X392948D01*
X393948Y830106D01*
X395947Y834105D02*
X396947Y835104D01*
X398946D01*
X399946Y834105D01*
Y833105D01*
X398946Y832105D01*
X397946D01*
X398946D01*
X399946Y831106D01*
Y830106D01*
X398946Y829106D01*
X396947D01*
X395947Y830106D01*
X405944Y835104D02*
X403944Y834105D01*
X401945Y832105D01*
Y830106D01*
X402945Y829106D01*
X404944D01*
X405944Y830106D01*
Y831106D01*
X404944Y832105D01*
X401945D01*
X314499Y835998D02*
X313499Y836998D01*
X311500D01*
X310500Y835998D01*
Y832000D01*
X311500Y831000D01*
X313499D01*
X314499Y832000D01*
X316498Y835998D02*
X317498Y836998D01*
X319497D01*
X320497Y835998D01*
Y834999D01*
X319497Y833999D01*
X318497D01*
X319497D01*
X320497Y832999D01*
Y832000D01*
X319497Y831000D01*
X317498D01*
X316498Y832000D01*
X326495Y836998D02*
X322496D01*
Y833999D01*
X324496Y834999D01*
X325495D01*
X326495Y833999D01*
Y832000D01*
X325495Y831000D01*
X323496D01*
X322496Y832000D01*
X294999Y662498D02*
X293999Y663498D01*
X292000D01*
X291000Y662498D01*
Y658500D01*
X292000Y657500D01*
X293999D01*
X294999Y658500D01*
X296998Y657500D02*
X298997D01*
X297998D01*
Y663498D01*
X296998Y662498D01*
X305995Y663498D02*
X301996D01*
Y660499D01*
X303996Y661499D01*
X304995D01*
X305995Y660499D01*
Y658500D01*
X304995Y657500D01*
X302996D01*
X301996Y658500D01*
X449002Y730499D02*
X448002Y729499D01*
Y727500D01*
X449002Y726500D01*
X453000D01*
X454000Y727500D01*
Y729499D01*
X453000Y730499D01*
X454000Y732498D02*
Y734497D01*
Y733498D01*
X448002D01*
X449002Y732498D01*
X454000Y740495D02*
X448002D01*
X451001Y737496D01*
Y741495D01*
X250453Y321045D02*
Y316047D01*
X251452Y315047D01*
X253452D01*
X254451Y316047D01*
Y321045D01*
X260450D02*
X256451D01*
Y318046D01*
X258450Y319046D01*
X259450D01*
X260450Y318046D01*
Y316047D01*
X259450Y315047D01*
X257451D01*
X256451Y316047D01*
X214953Y448047D02*
Y454045D01*
X217952D01*
X218952Y453046D01*
Y451046D01*
X217952Y450047D01*
X214953D01*
X216952D02*
X218952Y448047D01*
X220951Y449047D02*
X221951Y448047D01*
X223950D01*
X224950Y449047D01*
Y453046D01*
X223950Y454045D01*
X221951D01*
X220951Y453046D01*
Y452046D01*
X221951Y451046D01*
X224950D01*
X208953Y458047D02*
Y464045D01*
X211952D01*
X212951Y463046D01*
Y461046D01*
X211952Y460047D01*
X208953D01*
X210952D02*
X212951Y458047D01*
X214951D02*
X216950D01*
X215950D01*
Y464045D01*
X214951Y463046D01*
X219949D02*
X220949Y464045D01*
X222948D01*
X223948Y463046D01*
Y459047D01*
X222948Y458047D01*
X220949D01*
X219949Y459047D01*
Y463046D01*
X210953Y468547D02*
Y474545D01*
X213952D01*
X214951Y473546D01*
Y471546D01*
X213952Y470547D01*
X210953D01*
X212952D02*
X214951Y468547D01*
X216951D02*
X218950D01*
X217951D01*
Y474545D01*
X216951Y473546D01*
X221949Y468547D02*
X223949D01*
X222949D01*
Y474545D01*
X221949Y473546D01*
X210453Y479547D02*
Y485545D01*
X213452D01*
X214452Y484546D01*
Y482546D01*
X213452Y481547D01*
X210453D01*
X212452D02*
X214452Y479547D01*
X216451D02*
X218450D01*
X217450D01*
Y485545D01*
X216451Y484546D01*
X225448Y479547D02*
X221449D01*
X225448Y483546D01*
Y484546D01*
X224448Y485545D01*
X222449D01*
X221449Y484546D01*
X252953Y568547D02*
Y574545D01*
X255952D01*
X256951Y573546D01*
Y571546D01*
X255952Y570547D01*
X252953D01*
X254952D02*
X256951Y568547D01*
X258951D02*
X260950D01*
X259950D01*
Y574545D01*
X258951Y573546D01*
X263949D02*
X264949Y574545D01*
X266948D01*
X267948Y573546D01*
Y572546D01*
X266948Y571546D01*
X265949D01*
X266948D01*
X267948Y570547D01*
Y569547D01*
X266948Y568547D01*
X264949D01*
X263949Y569547D01*
X499500Y367502D02*
Y373500D01*
X496501D01*
X495501Y372500D01*
Y368502D01*
X496501Y367502D01*
X499500D01*
X493502Y373500D02*
X491503D01*
X492502D01*
Y367502D01*
X493502Y368502D01*
X488504Y373500D02*
X486504D01*
X487504D01*
Y367502D01*
X488504Y368502D01*
X472500Y401998D02*
Y396000D01*
X475499D01*
X476499Y397000D01*
Y400998D01*
X475499Y401998D01*
X472500D01*
X478498Y396000D02*
X480497D01*
X479498D01*
Y401998D01*
X478498Y400998D01*
X483496D02*
X484496Y401998D01*
X486495D01*
X487495Y400998D01*
Y397000D01*
X486495Y396000D01*
X484496D01*
X483496Y397000D01*
Y400998D01*
X475000Y366002D02*
Y372000D01*
X472001D01*
X471001Y371000D01*
Y367002D01*
X472001Y366002D01*
X475000D01*
X469002Y371000D02*
X468002Y372000D01*
X466003D01*
X465003Y371000D01*
Y367002D01*
X466003Y366002D01*
X468002D01*
X469002Y367002D01*
Y368001D01*
X468002Y369001D01*
X465003D01*
X464500Y394502D02*
Y400500D01*
X461501D01*
X460501Y399500D01*
Y395502D01*
X461501Y394502D01*
X464500D01*
X458502Y395502D02*
X457502Y394502D01*
X455503D01*
X454503Y395502D01*
Y396501D01*
X455503Y397501D01*
X454503Y398501D01*
Y399500D01*
X455503Y400500D01*
X457502D01*
X458502Y399500D01*
Y398501D01*
X457502Y397501D01*
X458502Y396501D01*
Y395502D01*
X457502Y397501D02*
X455503D01*
X513500Y490500D02*
X507502D01*
X513500Y494499D01*
X507502D01*
X513500Y496498D02*
X509501D01*
Y499497D01*
X510501Y500497D01*
X513500D01*
Y503496D02*
Y505495D01*
X512500Y506495D01*
X510501D01*
X509501Y505495D01*
Y503496D01*
X510501Y502496D01*
X512500D01*
X513500Y503496D01*
X507502Y512493D02*
X513500D01*
Y509494D01*
X512500Y508494D01*
X510501D01*
X509501Y509494D01*
Y512493D01*
Y514492D02*
X512500D01*
X513500Y515492D01*
Y518491D01*
X509501D01*
X513500Y520490D02*
X507502D01*
X511501D02*
X509501Y523489D01*
X511501Y520490D02*
X513500Y523489D01*
X509501Y527488D02*
Y529487D01*
X510501Y530487D01*
X513500D01*
Y527488D01*
X512500Y526488D01*
X511501Y527488D01*
Y530487D01*
X507502Y542483D02*
Y538484D01*
X513500D01*
Y542483D01*
X510501Y538484D02*
Y540484D01*
X509501Y544483D02*
X513500D01*
X511501D01*
X510501Y545482D01*
X509501Y546482D01*
Y547482D01*
Y550481D02*
X512500D01*
X513500Y551480D01*
Y554479D01*
X509501D01*
Y560477D02*
Y557478D01*
X510501Y556479D01*
X512500D01*
X513500Y557478D01*
Y560477D01*
X507502Y562477D02*
X513500D01*
X510501D01*
X509501Y563476D01*
Y565476D01*
X510501Y566475D01*
X513500D01*
X509501Y569475D02*
Y571474D01*
X510501Y572473D01*
X513500D01*
Y569475D01*
X512500Y568475D01*
X511501Y569475D01*
Y572473D01*
X513500Y574473D02*
Y576472D01*
Y575472D01*
X507502D01*
Y574473D01*
X509501Y579471D02*
X512500D01*
X513500Y580471D01*
Y583470D01*
X509501D01*
X539000Y489500D02*
X535001D01*
X533002Y491499D01*
X535001Y493499D01*
X539000D01*
X536001D01*
Y489500D01*
X540999Y495498D02*
X535001D01*
Y498497D01*
X536001Y499497D01*
X538000D01*
X539000Y498497D01*
Y495498D01*
X535001Y501496D02*
X539000D01*
X537001D01*
X536001Y502496D01*
X535001Y503496D01*
Y504495D01*
X539000Y507494D02*
Y509493D01*
Y508494D01*
X535001D01*
Y507494D01*
X539000Y512493D02*
Y514492D01*
Y513492D01*
X533002D01*
Y512493D01*
X534002Y523489D02*
X533002Y524489D01*
Y526488D01*
X534002Y527488D01*
X538000D01*
X539000Y526488D01*
Y524489D01*
X538000Y523489D01*
X534002D01*
X538000Y529487D02*
X539000Y530487D01*
Y532486D01*
X538000Y533486D01*
X534002D01*
X533002Y532486D01*
Y530487D01*
X534002Y529487D01*
X535001D01*
X536001Y530487D01*
Y533486D01*
X540000Y536485D02*
X539000Y537485D01*
X538000D01*
Y536485D01*
X539000D01*
Y537485D01*
X540000Y536485D01*
X540999Y535485D01*
X539000Y551480D02*
Y547481D01*
X535001Y551480D01*
X534002D01*
X533002Y550480D01*
Y548481D01*
X534002Y547481D01*
Y553479D02*
X533002Y554479D01*
Y556478D01*
X534002Y557478D01*
X538000D01*
X539000Y556478D01*
Y554479D01*
X538000Y553479D01*
X534002D01*
X539000Y559477D02*
Y561477D01*
Y560477D01*
X533002D01*
X534002Y559477D01*
Y564476D02*
X533002Y565475D01*
Y567475D01*
X534002Y568474D01*
X535001D01*
X536001Y567475D01*
Y566475D01*
Y567475D01*
X537001Y568474D01*
X538000D01*
X539000Y567475D01*
Y565475D01*
X538000Y564476D01*
X521002Y493999D02*
Y490000D01*
X527000D01*
Y493999D01*
X524001Y490000D02*
Y491999D01*
X523001Y496998D02*
Y498997D01*
X524001Y499997D01*
X527000D01*
Y496998D01*
X526000Y495998D01*
X525001Y496998D01*
Y499997D01*
X527000Y501996D02*
Y504995D01*
X526000Y505995D01*
X525001Y504995D01*
Y502996D01*
X524001Y501996D01*
X523001Y502996D01*
Y505995D01*
Y507994D02*
X526000D01*
X527000Y508994D01*
Y511993D01*
X528000D01*
X528999Y510993D01*
Y509994D01*
X527000Y511993D02*
X523001D01*
X527000Y513992D02*
X521002D01*
Y516991D01*
X522002Y517991D01*
X524001D01*
X525001Y516991D01*
Y513992D01*
X523001Y520990D02*
Y522989D01*
X524001Y523989D01*
X527000D01*
Y520990D01*
X526000Y519990D01*
X525001Y520990D01*
Y523989D01*
X523001Y525988D02*
X526000D01*
X527000Y526988D01*
Y529987D01*
X528000D01*
X528999Y528987D01*
Y527988D01*
X527000Y529987D02*
X523001D01*
X527000Y539984D02*
X525001Y537985D01*
X523001D01*
X521002Y539984D01*
X522002Y546982D02*
X521002Y545982D01*
Y543983D01*
X522002Y542983D01*
X523001D01*
X524001Y543983D01*
Y545982D01*
X525001Y546982D01*
X526000D01*
X527000Y545982D01*
Y543983D01*
X526000Y542983D01*
X522002Y549981D02*
X523001D01*
Y548981D01*
Y550980D01*
Y549981D01*
X526000D01*
X527000Y550980D01*
X523001Y553979D02*
X527000D01*
X525001D01*
X524001Y554979D01*
X523001Y555979D01*
Y556978D01*
X527000Y559977D02*
Y561977D01*
Y560977D01*
X523001D01*
Y559977D01*
Y564976D02*
X527000Y566975D01*
X523001Y568974D01*
X527000Y570974D02*
Y572973D01*
Y571974D01*
X523001D01*
Y570974D01*
X527000Y575972D02*
X523001D01*
Y578971D01*
X524001Y579971D01*
X527000D01*
X528999Y583970D02*
Y584969D01*
X528000Y585969D01*
X523001D01*
Y582970D01*
X524001Y581970D01*
X526000D01*
X527000Y582970D01*
Y585969D01*
X521002Y593966D02*
X527000D01*
Y597965D01*
Y599964D02*
Y601964D01*
Y600964D01*
X523001D01*
Y599964D01*
X527000Y604963D02*
X523001D01*
Y607962D01*
X524001Y608961D01*
X527000D01*
Y610961D02*
X521002D01*
X525001D02*
X523001Y613960D01*
X525001Y610961D02*
X527000Y613960D01*
X521002Y622957D02*
X527000D01*
Y626956D01*
X522002Y629955D02*
X523001D01*
Y628955D01*
Y630954D01*
Y629955D01*
X526000D01*
X527000Y630954D01*
X521002Y637952D02*
X527000D01*
Y634953D01*
X526000Y633953D01*
X524001D01*
X523001Y634953D01*
Y637952D01*
X527000Y639952D02*
X525001Y641951D01*
X523001D01*
X521002Y639952D01*
D65*
X272492Y887453D02*
G03*
X272492Y887453I-492J0D01*
G01*
X449043Y882847D02*
G03*
X449043Y882847I-492J0D01*
G01*
X304547Y575874D02*
G03*
X304547Y575874I-492J0D01*
G01*
X408500Y597634D02*
G03*
X408500Y597634I-492J0D01*
G01*
X234232Y508913D02*
G03*
X234232Y508913I-492J0D01*
G01*
X382972Y797055D02*
G03*
X382972Y797055I-492J0D01*
G01*
X310972Y827055D02*
G03*
X310972Y827055I-492J0D01*
G01*
X411185Y552035D02*
G03*
X411185Y552035I-492J0D01*
G01*
D66*
X458467Y748125D02*
G03*
X438532Y748125I-9967J21375D01*
G01*
X433500Y754500D02*
X463500D01*
X433500Y784500D02*
X463500D01*
X438500Y748000D02*
X458500D01*
X433500Y754500D02*
Y784500D01*
X463500Y754500D02*
Y784500D01*
D67*
X474949Y893106D02*
G03*
X474949Y893106I-394J0D01*
G01*
X298394Y635106D02*
G03*
X298394Y635106I-394J0D01*
G01*
X458894Y721106D02*
G03*
X458894Y721106I-394J0D01*
G01*
X261394Y904894D02*
G03*
X261394Y904894I-394J0D01*
G01*
X340471Y802886D02*
G03*
X341750Y802886I640J0D01*
G01*
X363179Y523990D02*
G03*
X363179Y523203I0J-394D01*
G01*
X436323Y822693D02*
X459551D01*
X436323Y804976D02*
Y822693D01*
Y804976D02*
X459551D01*
Y822693D01*
X336323Y848693D02*
X359551D01*
X336323Y830976D02*
Y848693D01*
Y830976D02*
X359551D01*
Y848693D01*
X446654Y385969D02*
X453346D01*
Y378291D02*
Y389709D01*
X446654Y378291D02*
Y389709D01*
X278949Y866764D02*
X283949D01*
X278949Y886449D02*
X283949D01*
Y866764D02*
Y886449D01*
X278949Y866764D02*
Y886449D01*
X455500Y862157D02*
X460500D01*
X455500Y881843D02*
X460500D01*
Y862157D02*
Y881843D01*
X455500Y862157D02*
Y881843D01*
X325012Y655835D02*
X333024Y663847D01*
X356232D01*
Y632626D02*
Y663847D01*
X325012Y632626D02*
X356232D01*
X325012D02*
Y655835D01*
X246500Y686000D02*
X269500D01*
X246500Y670000D02*
X269500D01*
X310551Y562882D02*
Y566032D01*
X308583Y562882D02*
X310551D01*
Y571543D02*
Y574693D01*
X308583D02*
X310551D01*
X414504Y584642D02*
Y587791D01*
X412535Y584642D02*
X414504D01*
Y593303D02*
Y596453D01*
X412535D02*
X414504D01*
X227244Y518756D02*
Y521906D01*
X229213D01*
X227244Y510094D02*
Y513244D01*
Y510094D02*
X229213D01*
X501500Y717000D02*
Y777000D01*
X491500Y717000D02*
Y777000D01*
Y717000D02*
X501500D01*
X491500Y777000D02*
X501500D01*
X378441Y865819D02*
X433559D01*
X378441Y918181D02*
X433559D01*
X373500Y728000D02*
Y764500D01*
X346000Y727500D02*
Y764000D01*
X270500Y919500D02*
X300500D01*
X270500Y908500D02*
X300500D01*
X466291Y900654D02*
X477709D01*
X466291Y907346D02*
X477709D01*
X470032Y900654D02*
Y907346D01*
X415496Y857811D02*
X452504D01*
X415496Y834189D02*
X452504D01*
X291000Y810000D02*
Y842000D01*
X305000Y810000D02*
Y842000D01*
X484791Y713347D02*
X496209D01*
X484791Y706654D02*
X496209D01*
X492469D02*
Y713347D01*
X481153Y720291D02*
Y731709D01*
X487846Y720291D02*
Y731709D01*
X481153Y727969D02*
X487846D01*
X212000Y526000D02*
X228000D01*
X212000Y534000D02*
X228000D01*
X308713Y936921D02*
X310287D01*
X308713Y927079D02*
X310287D01*
X414961Y796858D02*
Y797055D01*
Y778945D02*
Y779142D01*
X385039Y778945D02*
X414961D01*
X385039Y797055D02*
X414961D01*
X385039Y778945D02*
Y779142D01*
Y796858D02*
Y797055D01*
X394094Y778945D02*
Y797055D01*
X484661Y892756D02*
X486236D01*
X484661Y886457D02*
X486236D01*
X342961Y826858D02*
Y827055D01*
Y808945D02*
Y809142D01*
X313039Y808945D02*
X342961D01*
X313039Y827055D02*
X342961D01*
X313039Y808945D02*
Y809142D01*
Y826858D02*
Y827055D01*
X322094Y808945D02*
Y827055D01*
X298350Y645213D02*
Y646788D01*
X304650Y645213D02*
Y646788D01*
X465150Y731213D02*
Y732787D01*
X458850Y731213D02*
Y732787D01*
X254350Y893213D02*
Y894787D01*
X260650Y893213D02*
Y894787D01*
X414394Y353701D02*
Y363701D01*
X494394D01*
Y353701D02*
Y363701D01*
X414394Y353701D02*
X494394D01*
X241000Y729000D02*
X271000D01*
X241000Y719000D02*
Y729000D01*
Y719000D02*
X271000D01*
Y729000D01*
X235000Y739000D02*
Y749000D01*
X295000Y739000D02*
Y749000D01*
X235000Y739000D02*
X295000D01*
X235000Y749000D02*
X295000D01*
X395000Y933000D02*
Y943000D01*
X345000Y933000D02*
X395000D01*
X345000Y943000D02*
X395000D01*
X345000Y933000D02*
Y943000D01*
X461000Y539000D02*
X471000D01*
X461000Y599000D02*
X471000D01*
Y539000D02*
Y599000D01*
X461000Y539000D02*
Y599000D01*
X305327Y886284D02*
Y921717D01*
X333673Y886284D02*
Y921717D01*
X465213Y850921D02*
X466787D01*
X465213Y841079D02*
X466787D01*
X266000Y796000D02*
Y812000D01*
X274000Y796000D02*
Y812000D01*
X361000Y772000D02*
Y804000D01*
X375000Y772000D02*
Y804000D01*
X381000Y742000D02*
Y774000D01*
X395000Y742000D02*
Y774000D01*
X337705Y802886D02*
X340470D01*
X341750D02*
X344516D01*
X337705Y787531D02*
X344516D01*
X258000Y792000D02*
Y808000D01*
X250000Y792000D02*
Y808000D01*
X407000Y701000D02*
Y711000D01*
X254500D02*
X407000D01*
X247000D02*
X254500D01*
X247000Y701000D02*
Y711000D01*
Y701000D02*
X407000D01*
X436654Y381968D02*
X443346D01*
Y374291D02*
Y385709D01*
X436654Y374291D02*
Y385709D01*
X414654Y381968D02*
X421346D01*
Y374291D02*
Y385709D01*
X414654Y374291D02*
Y385709D01*
X423595Y531689D02*
X491311D01*
X423595Y406547D02*
X471953D01*
X423595D02*
Y531547D01*
X426654Y385968D02*
X433346D01*
Y378291D02*
Y389709D01*
X426654Y378291D02*
Y389709D01*
X463347Y376291D02*
Y387709D01*
X456654Y376291D02*
Y387709D01*
Y380031D02*
X463347D01*
X466654Y382031D02*
X473346D01*
X466654Y378291D02*
Y389709D01*
X473346Y378291D02*
Y389709D01*
X476654Y378031D02*
X483346D01*
X476654Y374291D02*
Y385709D01*
X483346Y374291D02*
Y385709D01*
X488654Y384031D02*
X495346D01*
X488654Y380291D02*
Y391709D01*
X495346Y380291D02*
Y391709D01*
X406362Y561878D02*
X407543D01*
X406362Y553217D02*
X407543D01*
X292679Y526307D02*
X363179D01*
X292679Y520831D02*
Y526307D01*
X363179Y520831D02*
Y523203D01*
Y523990D02*
Y526307D01*
X292679Y520831D02*
X363179D01*
D68*
X333949Y805106D02*
G03*
X333949Y805106I-787J0D01*
G01*
X359488Y532594D02*
G03*
X359488Y532594I-787J0D01*
G01*
D69*
X431000Y815763D02*
X434017D01*
X432509Y817272D02*
Y814254D01*
X331000Y841763D02*
X334017D01*
X332509Y843272D02*
Y840254D01*
M02*
