M48
;Layer_Color=9474304
;FILE_FORMAT=2:5
INCH,LZ
;TYPE=PLATED
T1F00S00C0.02800
T2F00S00C0.02953
T3F00S00C0.03543
T4F00S00C0.04200
T5F00S00C0.11811
%
T01
X0384579Y045865
X04375Y04598
X04665Y0462
X04999Y033826
X04745Y05615
X04843Y05851
Y05971
X0492Y0605242
X04597Y06068
X04499Y06138
X04453Y06022
X04099Y0602547
X03895Y0591
X03725Y06185
X0357017Y06138
X03311Y06153
X0323886Y0604281
X03244Y05981
X03247Y05908
X03503Y05392
X03595Y05367
X03652Y05394
X03751Y05581
X04179Y05686
X04294Y05225
X04245Y0517
X03914Y05126
X03585Y05073
X03377Y04992
X0335396Y04929
X0316Y0499
X03127Y05081
X0323Y05075
X0447453Y04995
X0467453Y05048
X04565Y04775
X03052Y05025
X02691Y05008
X02619Y0514
X0243Y05243
X02345Y0524
X023275Y053
X0227722Y0501166
X02375Y0491387
X0268693Y05383
X03067Y05438
X02769Y05804
X02708Y05819
X02801Y05996
X02855Y06123
X02841Y0641733
X02765Y06558
X02805Y06659
X02951Y06699
X03003Y06659
X03058Y06627
X03045Y06765
X02991Y06876
X02725Y06896
X02595Y0667
X03075Y06338
X03161Y06266
X0335701Y0647101
X0345Y06455
X03525Y06475
X03547Y06575
X03315Y06605
X0329571Y0654571
X0319677Y0668923
X03136Y06745
X0328364Y06825
X03414Y06901
X0375Y0691
X03965Y06953
X0403Y0715
X04401Y07375
X0419Y07655
X03315Y07477
X0318Y07805
X03865Y0662
X03765Y06465
X04155Y0646
X04049Y0634
X04439Y06355
X0446Y0656063
X0459Y068
X04765Y06526
X04853Y07451
X0393Y0818
X03175Y07885
X03821Y09189
X0268Y08978
X03022Y0805
X03122Y07977
T02
X0344Y0842
X0351874
X0406126Y0812
X0414
X0444Y0816
X0451874
T03
X0419394Y0358701
X0429394
X0439394
X0449394
X0459394
X0469394
X0479394
X0489394
X0466Y0544
Y0554
Y0564
Y0574
Y0584
Y0594
X0312Y0706
X0302
X0292
X0282
X0272
X0262
X0252
X0256Y0724
X0266
X0246
X025Y0744
X026
X027
X028
X029
X024
X0322Y0706
X0332
X0342
X0352
X0362
X0372
X0382
X0392
X0402
X04965Y0722
Y0732
Y0742
Y0752
Y0762
Y0772
X039Y0938
X038
X037
X036
X035
T04
X04385Y07595
X04585
Y07795
X04385
T05
X02177Y04299
X05327
X02177Y06661
X05327
X04736Y09338
X02768
M30
